<svg width="143" height="50" fill="none" xmlns="http://www.w3.org/2000/svg"><path d="M41.49 32.8c-2.833 0-8.413 1.215-8.413-.862 0-1.49 3.586-3.972 3.586-4.58 0-.33-.318-.5-.71-.5-2.802 0-8.71 5.858-9.856 7.38.51-1.565 1.22-4.142 1.22-5.729 0-1.193-.287-2.066-1.284-2.066a9.27 9.27 0 00-1.878.256c.276-1.236.425-2.3.425-3.131 0-1.864-.647-3.92-5.177-3.92C12.157 19.649 0 30.352 0 34.527c0 .671.393.98.7.98.488 0 .86-.416.86-1.001.02-3.334 10.608-12.28 16.867-12.28 2.228 0 2.939 1.172 2.939 2.578a15.005 15.005 0 01-.287 2.78c-6.8 2.321-17.143 7.827-17.143 13.514 0 3.514 2.46 5.208 5.166 5.208 6.705 0 12.274-10.16 14.47-17.402.191-.01.36-.021.53-.021.457 0 .68.085.68.745 0 2.822-2.409 8.658-2.409 10.373 0 .703.361 1.076.849 1.076 2.323 0 4.477-7.285 7.002-9.02-.075.244-.16.244-.16 1.128 0 .884.817 2.215 3.607 2.215s6.875-1.192 6.875.373c0 2.077-7.819 3.76-7.819 4.633 0 .49.605.852 1.369.852 2.726 0 9.982-3.355 9.982-6.337.01-.841-.34-2.12-2.588-2.12zm-31.253 9.756c-2.09 0-2.726-1.246-2.726-2.386 0-4.355 7.691-8.967 13.123-10.639-1.687 6.039-5.973 13.025-10.397 13.025z" fill="#231815"/><path d="M135.322 38.924c-3.724 0-5.389-.585-5.389-1.523 0-.49.657-1.086.657-2.662 0-2.428-2.79-5.783-7.479-5.783-4.137 0-5.771 3.515-4.911 5.72-1.485-.874-3.915.564-5.846.564-1.93 0-3.097-.863-3.256-1.651 1.336.575 8.009-.703 8.009-4.803 0-1.16-.753-2.854-3.055-2.854-6.397 0-8.01 8.158-10.29 8.158-.743 0-1.305-.427-1.305-1.31 0-.884.201-3.046-1.432-3.046-2.027 0-5.443 4.206-5.443 4.206s1.263-4.409-1.05-4.409c-2.588 0-5.972 5.485-6.959 5.485-1.146 0 1.623-3.663 1.623-5.367 0-.916-.721-1.704-2.153-1.704-5.018 0-11.765 8.647-13.516 8.647a.423.423 0 01-.456-.458c0-1.98 1.666-4.451 1.666-6.091 0-.906-.668-1.545-1.952-1.545-2.143 0-4.297 1.875-4.954 2.524.933-2.087 3.882-5.442 3.882-7.444 0-.767-.477-.969-.976-.969-5.145 0-14.607 9.34-18.936 14.377a81.338 81.338 0 016.196-15.942 55.04 55.04 0 004.795.202c11.563 0 17.748-4.388 17.748-13.365C80.54 2.886 77.707 0 74.906 0c-5.23 0-12.592 8.062-18.448 18.637-6.789-.735-12.114-2.258-13.897-.34-3.013 3.236 2.493 10.404 4.838 12.619.488.458.901.043.562-.373-1.517-1.864-5.57-8.53-4.127-10.436 1.38-1.832 4.785-.235 11.49.65C50.485 30.084 46.92 41 46.92 50c1.263-.522 2.759-1.352 2.992-3.333.053-.458.117-.927.18-1.385 1.995-6.24 11.14-15.644 18.236-19.702-.636 2.077-1.888 4.111-3.214 5.932-1.655 2.28-3.363 4.26-3.363 6.177 0 .575.286.841.636.841.436 0 .68-.266.934-.681 1.75-2.96 5.601-6.954 7.712-6.954 2.727 0-.657 4.132-.657 6.74 0 1.034.498 1.95 1.305 1.95 2.11 0 5.962-3.664 6.98-4.963-.541 1.363-.138 3.706 1.825 3.706 2.323 0 3.628-1.523 4.455-2.428 0 1.065.584 1.895 1.623 1.895 2.78 0 4.594-5.314 6.238-5.314 1.082 0-.17 4.303 1.432 4.303 1.952 0 4.063-4.324 5.177-4.324.499 0 .085.937.085 1.832 0 1.352.732 2.705 2.398 2.705 2.174 0 3.819-2.045 4.434-2.79 0 1.64 1.856 2.907 4.89 2.907 1.772 0 3.586-.458 5.602-.458 2.684 0 3.829 3.94 7.903 3.94a8.077 8.077 0 003.437-.724c1.752.502 3.567.75 5.389.735 4.742 0 8.72-1.619 8.72-2.204.022-.597-3.617.521-6.948.521zM73.899 2.716c3.172 0 3.84 4.473 3.257 8.253-.828 5.42-5.814 8.009-14.842 8.009-1.071 0-2.11-.043-3.14-.107C64.531 9.191 70.748 2.716 73.9 2.716zm10.704 31.32c-1.263 1.395-3.194 2.098-3.84 1.502-.68-.628-.107-2.332 1.601-3.749 1.782-1.47 3.087-1.395 3.49-1.022.541.49.18 1.682-1.251 3.27zm26.277-5.271c1.39-.938 3.023-1.183 3.501-.458.615.937-.425 2.268-1.867 3.067-1.496.83-3.119 1-3.438.34-.307-.606.382-1.99 1.804-2.95zm16.698 7.923c-.913 1.47-3.172 1.949-5.092.777-1.921-1.171-2.684-3.44-1.698-5.069.987-1.63 3.342-1.991 5.262-.82 1.92 1.172 2.461 3.6 1.528 5.112z" fill="#231815"/></svg>