<svg width="234" height="50" fill="none" xmlns="http://www.w3.org/2000/svg"><mask id="a" maskUnits="userSpaceOnUse" x="0" y="0" width="234" height="50"><path d="M0 0h233.272v50H0V0z" fill="#fff"/></mask><g mask="url(#a)"><path fill-rule="evenodd" clip-rule="evenodd" d="M24.975.038C38.7.134 49.809 11.103 49.803 24.949a24.804 24.804 0 01-24.927 24.869C11.2 49.793.052 38.76.076 24.886.1 11.072 11.236.087 24.975.038zm2.438 23.26c-.425-.174-.876-.283-1.334-.429.853-.715.889-.893.353-1.837-.356-.625-.561-1.295-.55-2.012.033-1.952.21-3.895.398-5.836.14-1.45.318-2.897.418-4.349.084-1.225-.605-1.916-1.793-1.908-1.121.007-1.774.64-1.692 1.838.17 2.458.459 4.909.627 7.368.125 1.823.556 3.704-.675 5.373-.223.303-.079.637.158.9.142.157.308.292.513.483-.205.062-.291.095-.38.113-2.422.474-3.867 2.22-3.887 4.684-.013 1.58-.189 3.149-.644 4.657-.518 1.711-.974 3.495-2.881 4.313-.393.168-.38.487.08.692.628.28 1.293.42 1.959.497 4.205.49 8.42.427 12.633.136.998-.069 2.004-.212 2.949-.59.177-.07.431-.126.415-.41-.01-.186-.148-.307-.298-.363-1.32-.491-1.884-1.633-2.355-2.817-.826-2.074-1.053-4.26-1.14-6.474-.076-1.95-1.079-3.293-2.874-4.028zm-.985 15.686c-.984 0-1.838-.003-2.693.002-.246.001-.292.12-.122.296.387.405.768.886 1.383.85.653-.038.99-.565 1.432-1.148zm106.521-19.37c2.476-3.934 9.554-3.969 11.978.855 1.244-1.867 2.89-3.194 5.138-3.562 4.047-.663 7.759 1.032 9.041 5.187.324 1.052.383 2.163.385 3.266.005 4.258-.005 8.517.015 12.776.002.459-.114.584-.574.577-1.76-.028-3.519-.032-5.279.002-.49.009-.563-.164-.563-.598.001-3.952-.018-7.904-.032-11.857a4.775 4.775 0 00-.245-1.52c-.544-1.6-1.735-2.057-3.177-1.97-1.847.113-2.886 1.19-3.104 2.938-.121.961-.096 1.924-.097 2.887-.002 3.176-.009 6.353.009 9.529.003.444-.088.598-.567.59-1.758-.031-3.519-.03-5.277 0-.475.008-.572-.14-.569-.588.017-3.67.01-7.34.01-11.01 0-.637-.046-1.27-.197-1.888-.401-1.643-1.381-2.526-2.929-2.464-1.739.068-2.743.606-3.309 2.442-.231.747-.227 1.53-.228 2.306-.004 3.529-.013 7.058.011 10.587.003.499-.131.623-.618.615-1.735-.031-3.472-.024-5.207-.004-.42.005-.6-.05-.599-.553.02-6.705.019-13.41.001-20.116-.001-.461.144-.533.554-.527 1.642.023 3.284.02 4.926.001.382-.005.544.075.512.494-.038.501-.009 1.007-.009 1.604zm78.773-.42c0-2.81.015-5.467-.014-8.124-.007-.533.129-.664.654-.653 1.735.036 3.472.031 5.206.002.474-.008.588.137.587.595-.013 9.033-.011 18.066-.002 27.098.002.436-.074.612-.567.602a117.766 117.766 0 00-4.994.001c-.524.012-.632-.171-.593-.64.04-.466.009-.94.009-1.528l-.556.644c-1.3 1.49-3.028 2.078-4.912 2.19-6.233.367-10.913-3.777-11.44-10.023-.28-3.333.359-6.401 2.559-8.982 2.161-2.533 4.954-3.665 8.296-3.58 2.211.056 4.072.82 5.767 2.398zm-4.913 14.205c3.17-.08 5.318-2.362 5.245-5.52-.062-2.715-2.121-5.333-5.68-5.132-3.083.175-5.139 2.65-4.925 5.724.204 2.933 2.32 4.998 5.36 4.928zM69.659 19.07c1.316-1.269 2.751-1.973 4.374-2.196 5-.686 10.14 1.897 11.652 7.401.966 3.518.752 7.024-1.202 10.22-2.13 3.484-5.369 5.023-9.378 4.922-2.525-.063-4.303-1.007-5.711-2.847 0 .626-.015 1.18.005 1.732.012.304-.081.409-.394.407a276.252 276.252 0 00-5.347.003c-.413.005-.444-.182-.438-.509.015-.846.005-1.693.005-2.54 0-8.14.01-16.278-.018-24.417-.002-.706.2-.85.858-.83 1.617.049 3.237.051 4.853-.002.651-.021.763.195.755.792-.033 2.561-.014 5.122-.014 7.863zm4.954 3.672c-2.989.005-5.212 2.317-5.208 5.417.003 2.979 2.216 5.334 5.069 5.31 3.215-.025 5.32-2.37 5.31-5.414-.01-3.081-2.263-5.308-5.171-5.313zm103.364-2.967c0-.874-.257-1.763.068-2.12.381-.42 1.277-.114 1.95-.125 1.195-.02 2.393.018 3.588-.017.515-.015.705.08.702.666-.024 6.636-.02 13.271-.004 19.907 0 .47-.076.641-.595.63a153.191 153.191 0 00-5.207-.004c-.414.005-.594-.07-.554-.531.045-.513.01-1.034.01-1.667-.252.306-.431.549-.635.769-1.568 1.687-3.592 2.173-5.784 2.154-6.013-.054-9.71-4.475-10.339-9.486-.453-3.608.222-6.906 2.66-9.68 1.885-2.143 4.287-3.305 7.167-3.462 1.94-.105 3.763.169 5.386 1.318.571.405 1.031.922 1.587 1.648zm-10.52 8.256c-.075 2.956 2.136 5.35 5.031 5.447 3.04.103 5.375-2.185 5.447-5.337.066-2.881-2.187-5.287-4.952-5.405-3.471-.148-5.476 2.474-5.526 5.295zm-63.002-8.273c0-.304-.007-.417.002-.529.041-.555-.245-1.29.119-1.613.306-.271 1.023-.088 1.558-.09 1.383-.005 2.766.01 4.149-.01.393-.005.565.04.564.517a4240.29 4240.29 0 00-.004 20.176c.001.407-.118.507-.509.502-1.805-.02-3.61-.019-5.415 0-.368.004-.494-.093-.472-.47.032-.538.008-1.08.008-1.74-.519.64-.958 1.226-1.578 1.627-2.408 1.557-5.023 1.644-7.664.905-4.162-1.166-6.486-4.1-7.356-8.24-.727-3.465-.264-6.763 1.84-9.682 1.942-2.695 4.604-4.135 7.95-4.302 1.892-.095 3.661.195 5.242 1.305.578.406 1.058.911 1.566 1.644zm-5.297 2.983c-2.991-.002-5.196 2.305-5.186 5.423.01 2.963 2.29 5.327 5.18 5.308 3.416-.024 5.221-2.426 5.285-5.403.066-3.073-2.239-5.326-5.28-5.328zm23.017 7.79c0 2.518-.013 5.035.011 7.552.005.478-.094.643-.606.633a120.952 120.952 0 00-5.206.002c-.552.012-.643-.168-.641-.674.019-4.987.001-9.974.025-14.96.003-.576-.118-.761-.72-.74-.784.03-1.839.36-2.283-.134-.39-.434-.117-1.473-.126-2.245-.008-.658.019-1.318-.01-1.975-.015-.366.089-.49.464-.474.679.03 1.364-.038 2.039.022.564.05.641-.169.634-.666-.029-1.952.003-3.905-.023-5.857-.006-.473.132-.594.593-.587 1.759.026 3.518.028 5.277 0 .475-.009.587.141.582.596-.024 1.976.004 3.953-.021 5.928-.005.45.098.613.571.583.677-.043 1.36.006 2.039-.018.334-.012.442.078.436.428-.021 1.34-.016 2.682-.003 4.023.003.305-.091.41-.4.402-.679-.02-1.362.03-2.039-.018-.515-.037-.608.155-.604.63.023 2.516.011 5.033.011 7.55zm64.855-2.494c0-3.314.009-6.629-.011-9.943-.003-.453.104-.59.57-.581 1.758.029 3.516.02 5.273.004.384-.004.569.026.567.51-.018 6.722-.018 13.445 0 20.168.002.481-.183.518-.571.515a191.11 191.11 0 00-5.273.005c-.483.009-.568-.153-.565-.593.017-3.361.01-6.723.01-10.085zm-.481-22.105c.637.664 1.303 1.337 1.944 2.035.187.206.309.23.578.126.621-.24 1.316-.308 1.927-.092.6.212.928.034 1.298-.382.525-.591 1.095-1.143 1.643-1.708.265.208.17.41.166.576-.053 2.02.187 4.05-.115 6.057-.302 1.992-2.201 3.268-4.059 3.108-2.069-.178-3.547-1.846-3.548-3.897-.002-1.906.004-3.811.008-5.717 0-.012.034-.024.158-.106z" fill="#231815"/><path d="M221.01 9.443c0-1.81.011-3.62-.009-5.43-.004-.448.117-.62.591-.617 3.657.016 7.313.014 10.97.001.435-.002.562.152.56.574-.012 3.668-.015 7.335.003 11.003.002.49-.195.581-.628.58-3.633-.013-7.266-.014-10.899.001-.466.002-.601-.156-.597-.61.021-1.834.009-3.668.009-5.502z" fill="#231815"/><path d="M223 10.736c.618.306 1.278.138 1.914.134.58-.004.762.182.758.762-.003.638-.169 1.3.132 1.92.836.09 1.674.066 2.51.013.318-.596.118-1.237.148-1.856.039-.816.014-.79.815-.83.616-.031 1.254.172 1.848-.143.086-.84.086-1.68 0-2.521-.619-.306-1.281-.139-1.917-.134-.59.005-.756-.195-.755-.769 0-.64.178-1.305-.139-1.926-.836-.053-1.674-.077-2.51.012-.301.62-.135 1.283-.132 1.92.004.581-.178.767-.758.763-.636-.004-1.296-.172-1.914.134-.086.84-.086 1.68 0 2.521z" fill="#fff"/><path fill-rule="evenodd" clip-rule="evenodd" d="M223 10.736c.795-.003 1.592.008 2.387-.016.34-.01.445.102.435.439-.024.797-.014 1.596-.018 2.394-.329.247-.28-.062-.284-.214a36.908 36.908 0 01-.002-1.822c.01-.363-.133-.502-.492-.492a37.1 37.1 0 01-1.818-.003c-.152-.003-.459.042-.208-.286zm2.804-5.338c.004.798-.006 1.597.018 2.394.01.337-.095.45-.435.44-.795-.025-1.592-.014-2.387-.017-.251-.327.056-.283.208-.286a37.163 37.163 0 011.818-.003c.36.01.502-.129.492-.492a36.91 36.91 0 01.002-1.822c.004-.152-.045-.46.284-.214zM228.314 13.565c-.001-.777.017-1.553-.013-2.329-.014-.392.09-.537.503-.519.773.035 1.548.016 2.321.02.251.324-.052.281-.205.286-.534.013-1.07.036-1.602-.003-.534-.039-.773.119-.717.695.047.461.009.93.01 1.396.001.219 0 .433-.297.454zm2.811-5.35c-.774.003-1.548-.016-2.321.019-.413.018-.517-.127-.503-.52.03-.774.012-1.551.013-2.328.349.032.294.298.296.523.004.49.023.98-.005 1.467-.025.44.162.57.573.552.58-.023 1.162-.013 1.742 0 .152.004.456-.038.205.287z" fill="#231815"/></g></svg>