<svg width="264" height="50" fill="none" xmlns="http://www.w3.org/2000/svg"><path d="M24.824 40.29c-8.524 0-14.016-6.151-14.016-15.29S16.257 9.71 24.824 9.71c5.932 0 10.325 2.768 12.786 6.986l7.381-6.37C41.081 4.305 34.622 0 24.824 0 9.227 0 0 11.6 0 25s9.227 25 24.824 25c9.754 0 16.213-4.306 20.167-10.325l-7.381-6.371c-2.46 4.218-6.854 6.986-12.786 6.986zM96.221 50c14.631 0 24.913-10.325 24.913-25S110.808 0 96.221 0 71.353 10.325 71.353 25c0 14.719 10.238 25 24.868 25zm0-9.622c-8.392 0-14.235-6.327-14.235-15.378 0-9.095 5.843-15.378 14.235-15.378 8.48 0 14.324 6.327 14.324 15.378-.044 9.095-5.888 15.378-14.324 15.378zm65.334 8.831h11.204V10.59h16.389l-.835-9.842h-42.136l-.834 9.842h16.212v38.62zm84.447-11.687c0-4.394 1.098-6.459 5.448-11.38l4.613-5.228c5.317-6.063 7.513-10.984 7.513-19.069V.791h-11.072v.835c0 6.942-1.23 9.534-5.536 14.455l-3.207 3.69c-1.845 2.153-3.163 4.218-3.163 4.218s-1.319-2.065-3.164-4.218l-3.251-3.69c-4.306-4.921-5.536-7.513-5.536-14.455V.79h-11.38v1.054c0 8.085 2.241 13.006 7.557 19.069l4.614 5.228c4.393 4.921 5.448 6.986 5.448 11.38v11.687h11.072V37.522h.044z" fill="#231815"/></svg>