<svg width="239" height="50" fill="none" xmlns="http://www.w3.org/2000/svg"><path d="M25.119 0v8.571h-5.516C3.373 8.571 0 20.714 0 29.444c0 6.39 1.944 11.945 5.437 15.635 3.015 3.135 7.063 4.802 11.706 4.802 3.135 0 5.714-.595 7.936-1.746l.04.873h10.714V0H25.12zm-14.88 29.167c0-4.167 1.19-11.151 8.928-11.707 1.071-.079 3.889-.277 5.952-.357v21.468c-1.428.953-3.611 1.667-6.111 1.747-2.42.04-4.564-.675-5.952-2.024-1.865-1.786-2.818-4.881-2.818-9.127zM63.81 40.397c-5.754-.12-8.85-3.175-9.842-8.651H79.96v-.436c.04-3.651 0-6.746-.119-8.096-.396-4.603-2.063-8.492-4.841-11.19-3.055-3.016-7.341-4.564-12.738-4.564-6.19 0-11.31 2.302-14.762 6.627-3.095 3.85-4.802 9.246-4.802 15.199 0 9.92 5.596 20.555 21.31 20.555 6.032 0 11.905-1.865 15.278-3.532v-9.92c-1.865 1.032-7.62 4.127-15.477 4.008zm-1.548-23.73c4.008 0 6.746 2.817 7.024 6.389h-15.12c1.112-3.89 3.81-6.39 8.096-6.39zM112.421 25.08v23.968h10.754V23.492c0-10.675-4.921-15.873-15.08-15.873-3.492 0-7.341 1.31-8.81 1.865l-.039-.873H88.532v40.476h10.754V18.77c2.301-1.468 5.952-2.064 8.849-1.389 2.857.635 4.286 2.46 4.286 7.698zM214.167 32.5V8.571h-10.715v25.556c0 10.675 4.961 15.873 15.08 15.873 3.492 0 7.341-1.31 8.809-1.865l.04.913h10.714V8.57h-10.754V38.89c-2.301 1.468-5.952 2.063-8.849 1.389-2.897-.675-4.325-2.5-4.325-7.778zM132.262 0v35.119c0 4.841.833 8.214 2.619 10.635 2.103 2.817 5.556 4.206 10.516 4.206 3.968 0 7.817-.873 10.079-1.587v-9.682c-1.389.357-5.635 1.27-8.095 1.27-1.587 0-2.698-.318-3.333-.993-.992-.992-.992-2.698-.992-4.325V17.54c4.246 0 9.484.277 12.46.635V8.65h-12.46V.079h-10.794V0zM194.286 29.405c-2.183-2.976-5.477-4.524-11.548-5.635-2.54-.476-5.516-.992-7.222-1.945-.833-.436-1.27-1.11-1.27-1.825 0-.714.516-1.35 1.19-1.746 1.588-.833 4.445-1.27 8.731-.476 4.166.754 8.73 2.341 10.198 2.976v-9.762c-5-2.46-9.405-3.452-14.405-3.373-4.643.08-8.611 1.31-11.587 3.492-3.095 2.341-4.841 5.675-5.04 9.683-.277 6.706 3.929 10.714 13.611 12.619 2.024.397 4.961.992 6.231 1.508 1.269.516 1.984 1.349 1.984 2.262 0 .912-.635 1.746-1.627 2.182-1.826.754-4.762.635-6.667.437-5.595-.556-10.873-2.54-12.817-3.373v10.04c3.293 1.666 8.452 3.61 14.603 3.491 7.063-.119 15.793-2.222 17.381-11.508.635-3.452.039-6.587-1.746-9.047z" fill="#231815"/></svg>