<svg width="244" height="50" fill="none" xmlns="http://www.w3.org/2000/svg"><path d="M83.947 0C71.433 0 66.623 9.08 65.79 20.991a57.069 57.069 0 00-.131 4.018c0 3.756.336 7.322 1.089 10.496h10.533c-.562-2.928-.657-6.551-.657-10.477 0-1.387.008-2.74.056-4.037.278-7.78 1.655-13.556 7.267-13.556 5.178 0 6.887 5.779 7.266 13.556.063 1.293.075 2.65.075 4.037 0 3.926-.208 7.561-.864 10.477-.962 4.315-2.88 7.116-6.477 7.116-4.002 0-5.838-2.79-6.666-7.116l-10.533.019C68.766 44.078 73.834 50 83.947 50c10.051 0 15.162-5.913 17.198-14.476.002-.006-.001-.013 0-.019.758-3.188 1.108-6.747 1.108-10.496 0-1.369-.059-2.715-.15-4.018C101.261 9.088 96.396 0 83.947 0zm75.535 1.108V48.705h9.444V37.984l1.896-2.479 1.446-1.896.976 1.896 6.872 13.2h10.365l-7.21-13.2-4.938-9.05 3.999-5.464 6.59-9.012h-10.383l-6.327 9.012-3.286 4.694V1.108h-9.444zM0 1.352V48.705h16.391c10.273 0 15.06-4.175 16.842-13.2H22.212c-1.107 3.622-3.313 4.994-7.492 4.994h-4.525V9.012h4.319c6.865 0 8.391 4.066 8.655 11.98h10.872c-.455-12.008-3.73-19.64-16.993-19.64H0zm34.04 19.64l-10.87.018c.034 1.056.037 2.183.037 3.38 0 4.988-.226 8.597-.995 11.115l11.021-.019c.619-3.12.864-6.81.864-11.115 0-1.153-.017-2.285-.056-3.38zm107.811-16.73v7.285h-4.788v6.421h4.788v21.029c0 7.452 1.37 9.708 8.75 9.708 2.176 0 4.085-.221 6.14-.414V41.74c-.627.069-1.376.131-2.122.131-2.735 0-3.342-1.165-3.342-4.018V17.968h5.464v-6.42h-5.464V4.261h-9.426zm-21.179 5.652c-2.437.016-4.622.468-6.59 1.427-1.949.938-3.641 2.299-5.051 4.074-1.233 1.552-2.226 3.413-2.966 5.576-.105.313-.202.637-.301.958-.746 2.54-1.145 5.33-1.145 8.393 0 1.832.139 3.559.413 5.163.324 1.92.848 3.678 1.558 5.276 1.306 2.96 3.198 5.215 5.652 6.816 2.475 1.6 5.369 2.403 8.712 2.403 2.871 0 5.434-.538 7.679-1.633 2.246-1.098 4.032-2.654 5.389-4.657 1.393-2.019 2.216-4.298 2.459-6.928h-9.894c-.401 1.652-1.117 2.929-2.16 3.868-1.044.956-2.254 1.427-3.68 1.427-1.862 0-3.398-.805-4.6-2.441-.834-1.13-1.385-2.503-1.633-4.13a14.565 14.565 0 01-.15-2.254v-.413h22.455v-1.52c0-3.57-.333-6.603-.995-9.145a23.493 23.493 0 00-.338-1.164c-.002-.006.002-.013 0-.019-.674-2.057-1.624-3.912-2.854-5.538a12.941 12.941 0 00-3.229-3.005 13.942 13.942 0 00-4.131-1.877c-1.462-.435-3-.657-4.6-.657zm83.778 0c-2.418.016-4.642.468-6.609 1.427-1.949.938-3.622 2.299-5.051 4.074-1.233 1.552-2.226 3.413-2.966 5.576-.104.313-.205.637-.301.958-.749 2.54-1.108 5.33-1.108 8.393 0 1.832.124 3.559.395 5.163.321 1.92.848 3.678 1.558 5.276 1.305 2.96 3.18 5.215 5.633 6.816 2.491 1.6 5.406 2.403 8.731 2.403 2.888 0 5.434-.538 7.679-1.633 2.229-1.098 4.047-2.654 5.407-4.657 1.391-2.019 2.18-4.298 2.422-6.928h-9.876c-.4 1.652-1.115 2.929-2.159 3.868-1.047.956-2.272 1.427-3.68 1.427-1.86 0-3.399-.805-4.581-2.441-.839-1.13-1.397-2.503-1.653-4.13a14.497 14.497 0 01-.169-2.254v-.413h22.494v-1.52c0-3.57-.332-6.603-1.014-9.145a23.493 23.493 0 00-.338-1.164c-.002-.006.002-.013 0-.019-.662-2.057-1.628-3.912-2.873-5.538a12.38 12.38 0 00-3.229-3.005 13.92 13.92 0 00-4.131-1.877 15.951 15.951 0 00-4.581-.657zM55.652 11.02c-3.884 0-6.535 2.308-8.45 5.858h-.15v-4.9H38.04v9.012l12.467-.018c1.191-.662 2.59-.94 3.924-.94.96 0 1.974.065 2.93.132v-9.012a13.894 13.894 0 00-1.71-.132zm-17.612 9.97v27.714h9.425V26.643c0-2.913 1.302-4.699 3.042-5.652H38.04zm203.436-9.97c-3.879 0-6.535 2.308-8.449 5.858h-.151v-4.9h-9.012v9.012l12.467-.018c1.191-.662 2.586-.94 3.924-.94.958 0 1.972.065 2.929.132v-9.012a13.901 13.901 0 00-1.708-.132zm-17.612 9.97v27.714h9.444V26.643c0-2.913 1.283-4.699 3.023-5.652h-12.467zm-103.06-3.51c1.705 0 3.043.646 4.036 1.97.335.438.625.953.883 1.54.524 1.167.885 2.607 1.108 4.338H114.42c.192-1.71.577-3.158 1.164-4.338a7.36 7.36 0 01.939-1.445c1.112-1.375 2.544-2.066 4.281-2.066zm83.759 0c1.705 0 3.062.646 4.036 1.97.334.438.64.953.902 1.54.523 1.167.899 2.607 1.107 4.338h-12.392c.18-1.71.56-3.158 1.146-4.338.265-.539.574-1.019.92-1.445 1.131-1.375 2.559-2.066 4.281-2.066zM50.676 40.611v8.093h8.092v-8.093h-8.092z" fill="#231815"/></svg>