<svg width="173" height="50" fill="none" xmlns="http://www.w3.org/2000/svg"><path d="M155.865 49.252V14.52l7.936.057v3.566l-.029 1.035c.432-1.812 3.364-4.946 8.77-5.32v8.339c-3.939.258-8.281 1.409-8.425 7.418V49.28l-8.252-.029zM62.737 49.971c-9.92 0-17.999-8.08-17.999-17.999 0-9.92 8.08-17.998 18-17.998 9.919 0 17.998 8.079 17.998 17.998 0 9.92-8.08 18-17.999 18zm.288-28.12c-5.578 0-10.121 4.544-10.121 10.121 0 5.578 4.543 10.121 10.12 10.121 5.579 0 10.121-4.543 10.121-10.12-.028-5.578-4.542-10.121-10.12-10.121zM101.15 50c-4.169-.057-6.987-.949-9.862-3.709l.058-.029-.202 3.048h-7.562V8.194L91.806 0l-.03 17.625.03-.057c2.156-2.07 5.606-3.566 9.545-3.566h.087c9.085 0 16.762 8.252 16.762 18 0 4.715-1.869 9.229-5.262 12.708-3.249 3.335-7.475 5.261-11.587 5.29h-.201zm-.977-28.12a10.11 10.11 0 00-8.31 4.342l-.086.115v11.3l.086.115a10.11 10.11 0 008.31 4.341c5.577 0 10.12-4.543 10.12-10.12-.028-5.578-4.543-10.093-10.12-10.093zM132.174 49.741c-7.447 0-12.651-4.428-12.651-10.753 0-7.16 5.578-10.926 16.101-10.926h7.59v-1.294c0-3.019-2.731-6.124-7.331-6.124-3.278 0-6.153.978-7.763 2.645l-4.457-4.456a14.11 14.11 0 011.696-1.495c2.904-2.157 6.642-3.307 10.869-3.307 9.114 0 14.98 5.003 14.98 12.737v22.57h-7.85v-3.334l-.776.776c-2.76 2.731-5.923 2.961-10.408 2.961zm3.651-15.785c-5.233 0-7.878 1.61-7.878 4.802 0 2.76 2.387 4.543 6.038 4.543 5.607 0 9.229-2.933 9.229-7.476v-1.869h-7.389zM8.568 14.577H.518V49.31h8.05V14.577zM4.485 9.948C2.013 9.948 0 7.936 0 5.434 0 2.961 2.013.92 4.485.92A4.522 4.522 0 019 5.434a4.503 4.503 0 01-4.514 4.514zM16.36 39.505c3.306 2.473 6.67 3.566 11.415 3.566 5.405 0 7.849-1.61 7.849-3.997 0-2.501-2.387-3.594-8.942-4.169-8.597-.776-14.319-3.22-14.319-10.523 0-6.297 6.096-10.409 14.52-10.409 5.664 0 10.926 1.927 15.038 5.32.057.029.086.086.143.115l-4.744 4.888c-2.846-2.186-6.498-3.393-10.782-3.393-4.37 0-6.756 1.294-6.756 3.22 0 2.07 1.926 3.076 7.763 3.652 8.999.89 15.497 3.795 15.497 11.184C43.042 45.975 36.486 50 27.688 50c-6.354 0-11.443-1.553-16.072-5.405-.058-.03-.086-.087-.115-.115l4.859-4.974z" fill="#231815"/></svg>