<svg width="174" height="50" fill="none" xmlns="http://www.w3.org/2000/svg"><path d="M144.306 20.427c0 3.095-.095 8.056.036 11.296a4.282 4.282 0 002.785 3.794h-16.735c2.5-1.326 2.871-3.423 2.88-5.576.034-8.075.042-16.39-.038-24.464a5.42 5.42 0 00-3.633-5.412c.558-.028.833-.052 1.096-.052h23.476c3.247-.116 6.475.531 9.427 1.89 4.475 2.227 6.689 5.952 5.963 9.78-.666 3.506-4.392 6.733-9.153 7.3-.155.02-.309.102-.155.05 1.631 2.09 3.297 4.726 4.928 7.238.905 1.404 1.726 2.857 2.631 4.268 1.654 2.605 2.547 3.342 5.951 4.94-4.952 0-9.725.018-14.497-.039a1.687 1.687 0 01-1.036-.853c-2.452-4.27-4.876-8.552-7.272-12.847a2.233 2.233 0 00-1.905-1.392c-.095 0-4.261 0-4.356.014a2.746 2.746 0 00-.393.068v-.003zm.083-4.996c1.81 0 7.356.119 9.082-.028 3.047-.265 5.094-2.173 5.237-4.642.131-2.335-1.69-4.246-4.749-4.66-1.881-.252-7.606-.047-9.57-.047v9.378-.001zM16.604 35.63H0c2.602-1.352 2.957-3.443 2.976-5.516.078-8.075.047-16.45.014-24.52a6.273 6.273 0 00-.476-2.579A22.586 22.586 0 00.65.13h15.746a4.555 4.555 0 00-2.657 4.047c-.119 3.56-.038 7.844-.038 11.612.027-.026.844-.751.844-.751s2.024-1.786 2.976-2.652c2.653-2.408 5.328-4.8 7.93-7.247a12.43 12.43 0 001.813-2.324A1.905 1.905 0 0027.07.131h17.712c-8.03 3.532-12.927 9.822-19.106 14.94-.09.073-1.173 1.005-1.284 1.168 2.47 2.587 4.404 4.629 6.903 7.223 2.392 2.486 4.703 5.034 7.249 7.403 1.873 1.742 4.177 3.186 6.099 4.76h-.812c-4.57 0-8.282-.03-12.855 0a2.182 2.182 0 01-1.848-.74c-4.437-4.821-7.337-7.856-11.812-12.657-.814.88-3.584 3.676-3.584 3.716.082 4.047-.033 2.27.164 6.308a3.97 3.97 0 002.713 3.382l-.005-.002zm86.842-21.13c2.69 0 11.403.081 14.014-.03a3.997 3.997 0 003.606-2.38V22.82c-1.454-2.366-3.904-2.28-6.308-2.284h-11.316v9.146c3.759-.166 11.98-.16 15.662-.556a8.275 8.275 0 005.515-3.366c.43-.532.813-1.092 1.414-1.905l-2.347 11.679H89.181c2.618-1.322 3.094-3.484 3.11-5.713.053-8.15.057-16.545-.02-24.694A5.049 5.049 0 0088.505.094h36.19v10.74l-.545-1.112a6.585 6.585 0 00-5.894-3.707c-2.872-.185-11.847-.054-14.814-.054v8.532l.005.008zM50.551.063H67.05c-2.665 1.667-2.809 3.995-2.818 6.328-.026 7.346-.011 14.843-.01 22.19 0 .25.026.497.056 1.004 3.627-.14 9.172-.04 12.668-.476 3.523-.445 5.662-2.722 7.386-5.223.172-.25.334-.507.505-.758.08-.06.165-.112.254-.155l-2.392 12.484H51.037c2.168-1.592 2.428-3.76 2.433-5.929.023-8.332 0-16.811-.103-25.14a4.675 4.675 0 00-2.809-4.32M73.75 43.343h-6.368v.751h2.786v5.73h.819v-5.719h2.774l-.012-.007v-.755h.001zm-13.865 5.713h-4.63v-2.32h2.64v-.755h-2.64v-1.883h4.368v-.755h-5.18v6.475h5.45l-.008-.007v-.755zm6.674-2.424a2.737 2.737 0 00-1.595-.636c-.528-.038-1.055-.08-1.582-.126a2.2 2.2 0 01-1.117-.316.732.732 0 01-.331-.59.833.833 0 01.476-.707 2.366 2.366 0 011.233-.285 4.195 4.195 0 012.665.97l.476-.672a5.294 5.294 0 00-3.153-1.055 3.086 3.086 0 00-1.851.51 1.52 1.52 0 00-.702 1.273c-.001.598.376 1.13.94 1.328.426.17.875.275 1.332.31l1.38.097c.417.012.82.145 1.162.382a.952.952 0 01.379.765 1.14 1.14 0 01-.562.97 2.602 2.602 0 01-1.491.381 4.81 4.81 0 01-2.945-1.09l-.476.695a5.493 5.493 0 003.433 1.151 3.428 3.428 0 002.15-.623c.477-.329.76-.87.758-1.45l-.005-.005a1.666 1.666 0 00-.574-1.277zm12.01.777a2.133 2.133 0 00.7-1.666l-.005-.005a2.18 2.18 0 00-.728-1.697 2.676 2.676 0 00-1.937-.705h-2.193v4.778h2.199a2.71 2.71 0 001.963-.705zm-3.357-3.32h1.393a1.848 1.848 0 011.38.517 1.617 1.617 0 01-.015 2.285l-.006-.005a1.856 1.856 0 01-1.36.484h-1.392v-3.28zm-.794 5.73h4.304v-.75h-4.304v.75zm13.345.038h.82v-6.526h-.82v6.526zm29.185-2.082a1.612 1.612 0 00-1.057-1.568c.372-.28.585-.724.574-1.19a1.57 1.57 0 00-.648-1.315 2.816 2.816 0 00-1.759-.498 4.95 4.95 0 00-3.079 1.044l.488.693a4.269 4.269 0 012.554-.943 2.06 2.06 0 011.174.29.852.852 0 01.427.73c0 .58-.493.869-1.478.869-.179 0-.318-.006-.417-.012v.785h.282c1.393 0 2.089.381 2.089 1.14a1.143 1.143 0 01-.635.966 3.186 3.186 0 01-1.748.438 4.39 4.39 0 01-3.029-1.36l-.514.644a4.818 4.818 0 003.592 1.509 3.807 3.807 0 002.334-.681c.522-.338.843-.913.856-1.535l-.006-.006zm-14.657-3.619h4.827l-3.849 5.663h.966l4.423-6.457v-.006h-6.367v.8zm-6.16-.95a3.37 3.37 0 00-2.198.667 2.094 2.094 0 00-.818 1.7 1.825 1.825 0 00.919 1.59 3.4 3.4 0 002.304.476 5.319 5.319 0 002.693-1.163c.062.32.055.649-.02.965a2.624 2.624 0 01-.82 1.21c-.54.38-1.19.572-1.85.545a3.622 3.622 0 01-2.346-.893l-.488.577a4.259 4.259 0 002.87 1.11 3.676 3.676 0 002.619-.938 3.154 3.154 0 001-2.41 3.146 3.146 0 00-1.054-2.417 3.968 3.968 0 00-2.809-1.02h-.001zm.102 3.647a2.456 2.456 0 01-1.604-.297 1.092 1.092 0 01-.655-.99 1.36 1.36 0 01.61-1.098 2.452 2.452 0 011.54-.47 3.307 3.307 0 011.99.651c.315.244.577.55.77.897h.004a4.942 4.942 0 01-2.655 1.307z" fill="#231815"/></svg>