<svg width="388" height="25" fill="none" xmlns="http://www.w3.org/2000/svg"><path fill-rule="evenodd" clip-rule="evenodd" d="M13.374 14.096L23.154.501h3.607v23.898h-4.112V7.684l-9.277 12.77-9.276-12.77v16.715H0V.501h3.654l9.72 13.595zm47.12 4.162H47.469l-3.266 6.141H39.7L52.385.501h3.195l12.823 23.898H63.86l-3.365-6.141zm-11.04-3.737h9.093l-4.562-8.448-4.53 8.448zm49.444-.318l6.288 10.196h-4.657l-6.186-9.989h-8.758v9.99h-4.134V.5h14.71c2.134 0 4.339.424 6.027 1.807 1.585 1.291 2.261 3.05 2.261 5.074 0 1.76-.563 3.31-1.753 4.61-1.042 1.14-2.336 1.848-3.798 2.212zm-13.313-3.53h10.378c1.057 0 2.337-.153 3.193-.839.75-.593.998-1.435.998-2.37 0-.947-.27-1.776-1.01-2.392-.826-.696-1.982-.877-3.028-.877h-10.53v6.479zm54.34 5.146l3.343 2.3-.243.427c-1.169 2.048-2.794 3.662-4.867 4.787C135.997 24.5 133.63 25 131.184 25c-3.615 0-6.881-1.046-9.541-3.526-2.581-2.413-3.787-5.446-3.787-8.968 0-3.531 1.208-6.57 3.803-8.983C124.317 1.046 127.587 0 131.184 0c2.259 0 4.448.436 6.482 1.437a12.367 12.367 0 014.799 4.129l.31.451-3.508 2.305-.281-.492c-.749-1.308-1.81-2.296-3.142-2.999-1.453-.76-3.025-1.095-4.66-1.095-2.504 0-4.722.747-6.536 2.49-1.774 1.714-2.566 3.832-2.566 6.28 0 2.448.788 4.57 2.566 6.28 1.815 1.738 4.036 2.477 6.536 2.477 1.74 0 3.397-.375 4.907-1.255 1.518-.889 2.671-2.172 3.546-3.689l.288-.5zm30.884-2.315h4.134v4.092c0 1.2.424 2.143 1.488 2.741 1.431.811 3.858.926 5.464.926 1.421 0 3.836-.123 4.971-1.112 1.086-.944 1.239-3.006 1.239-4.334V.501h4.135v16.078c0 2.437-.577 4.933-2.603 6.482-2.166 1.655-5.674 1.939-8.3 1.939-2.537 0-5.684-.296-7.842-1.766-1.911-1.312-2.686-3.274-2.686-5.553v-4.177zm54.256 4.754h-13.029l-3.265 6.141h-4.502L216.953.501h3.197l12.822 23.898h-4.543l-3.364-6.141zm-11.042-3.737h9.093l-4.562-8.448-4.531 8.448zm52.233 1.298l3.34 2.3-.243.427c-1.168 2.048-2.792 3.662-4.865 4.787C262.327 24.5 259.959 25 257.513 25c-3.616 0-6.879-1.046-9.54-3.526-2.58-2.413-3.788-5.446-3.788-8.968 0-3.531 1.208-6.57 3.803-8.983C250.645 1.046 253.917 0 257.513 0c2.26 0 4.448.436 6.483 1.437 1.95.96 3.564 2.337 4.799 4.129l.309.451-3.508 2.305-.281-.492c-.748-1.308-1.809-2.296-3.143-2.999-1.452-.76-3.025-1.095-4.659-1.095-2.503 0-4.722.745-6.535 2.49-1.774 1.714-2.567 3.832-2.567 6.28 0 2.448.788 4.57 2.565 6.28 1.817 1.739 4.036 2.477 6.537 2.477 1.74 0 3.398-.376 4.906-1.255 1.519-.89 2.672-2.172 3.547-3.689l.29-.5zM296.066 25c-3.609 0-6.881-1.048-9.54-3.526-2.58-2.413-3.788-5.446-3.788-8.968 0-3.531 1.208-6.57 3.805-8.983C289.2 1.046 292.47 0 296.066 0c3.617 0 6.895 1.044 9.57 3.536 2.599 2.408 3.825 5.437 3.825 8.97 0 3.529-1.218 6.56-3.81 8.97-2.679 2.48-5.959 3.524-9.585 3.524zm0-3.737c2.5 0 4.719-.739 6.534-2.478 1.779-1.71 2.567-3.831 2.567-6.279 0-2.453-.786-4.581-2.558-6.294-1.809-1.748-4.045-2.476-6.543-2.476-2.503 0-4.72.747-6.533 2.49-1.774 1.714-2.567 3.832-2.567 6.28 0 2.448.786 4.57 2.565 6.28 1.815 1.738 4.036 2.477 6.535 2.477zm49.843-10.415c.963.613 1.818 1.378 2.456 2.339.754 1.149 1.095 2.437 1.095 3.809 0 2.175-.752 4.04-2.442 5.432-1.82 1.494-4.146 1.971-6.449 1.971h-15.942V.501h15.162c1.983 0 4.223.305 5.839 1.548 1.499 1.147 2.081 2.817 2.081 4.668 0 .945-.189 1.867-.646 2.698a5.006 5.006 0 01-1.154 1.433zm-17.146 9.857h12.41c1.084 0 2.146-.24 2.951-1.004.771-.732 1.042-1.704 1.042-2.747 0-1.042-.279-2.003-1.042-2.733-.805-.766-1.864-1.012-2.951-1.012h-12.41v7.496zm0-11.189h11.295c.889 0 1.922-.135 2.642-.704.614-.484.829-1.16.829-1.925 0-.76-.178-1.51-.795-2.006-.704-.568-1.806-.686-2.676-.686h-11.295v5.321zm53.56 5.198c-1.115-.799-2.636-1.096-3.983-1.197a42.808 42.808 0 00-1.865-.125c-2.41-.155-6.249-.43-8.493-1.365-1.094-.49-2.119-1.176-2.838-2.148a5 5 0 01-.999-3.035c0-2.172 1.132-3.796 2.906-4.977C369.169.45 371.758 0 374.267 0c2.131 0 4.228.324 6.262.962a22.133 22.133 0 015.869 2.849l.464.318-2.447 3.224-.425-.311c-1.429-1.055-2.98-1.908-4.664-2.481a15.48 15.48 0 00-5.012-.825c-1.475 0-3.05.212-4.36.936-.791.438-1.536 1.07-1.536 2.045 0 .295.07.572.219.827.174.303.462.561.737.763 1.316.913 4.758 1.156 6.315 1.244 1.207.066 2.428.141 3.628.27 2.245.241 4.492.889 6.251 2.36 1.532 1.289 2.385 2.93 2.385 4.942 0 2.471-1.235 4.34-3.246 5.715-2.397 1.642-5.34 2.162-8.199 2.162-2.378 0-4.752-.305-7.025-1.02-2.225-.693-4.296-1.76-6.193-3.111l-.438-.313 2.427-3.33.432.312c1.633 1.177 3.409 2.14 5.314 2.801 1.753.616 3.577.966 5.437.966 1.801 0 3.732-.282 5.283-1.26 1.119-.7 1.89-1.647 1.89-3.007 0-1.01-.494-1.75-1.312-2.324" fill="#231815"/></svg>