<svg width="296" height="50" fill="none" xmlns="http://www.w3.org/2000/svg"><path d="M25.73 31.573h-3.31V18.004L12.67 29.38 3.316 18.033v13.54H0V14.04h3.848l8.85 10.584 8.94-10.584h4.092v17.534zM119.272 16.704H101.7v4.642h10.911v2.607H101.7v7.62h-3.508V14.04h21.085l-.005 2.665zM194.473 16.704h-10.252v14.87h-3.515v-14.87h-10.274V14.04h24.041v2.665zM209.039 13.762c-8.064 0-14.451 3.813-14.451 9.028 0 5.214 6.532 9.024 14.478 9.024s14.446-3.772 14.446-9.024c0-5.252-6.417-9.028-14.473-9.028zm.022 15.23c-6.099 0-10.868-2.687-10.868-6.203 0-3.524 4.769-6.2 10.85-6.2 6.068 0 10.865 2.607 10.865 6.2s-4.744 6.202-10.847 6.202zM156.124 13.769c-8.028 0-14.357 3.83-14.357 9.02 0 5.198 6.373 9.034 14.357 9.034 5.332 0 9.91-1.716 12.448-4.316l-2.736-1.869c-1.73 2.043-5.425 3.356-9.712 3.356-6.06 0-10.801-2.635-10.801-6.206 0-3.562 4.8-6.2 10.801-6.2 3.729 0 6.965 1.065 8.854 2.545l2.722-1.86c-2.608-2.154-6.787-3.504-11.576-3.504zM51.92 31.573h3.933L43.546 14.04h-2.851L28.39 31.573h3.926l3.915-5.579h11.776l3.912 5.58zm-13.883-8.169l4.084-5.831 4.079 5.831h-8.163zM137.718 31.573h3.923L129.337 14.04h-2.856l-12.303 17.534h3.93l3.912-5.579h11.782l3.916 5.58zm-13.889-8.169l4.078-5.831 4.08 5.831h-8.158zM73.613 22.413l10.208-8.374h-4.672l-7.879 6.458-7.87-6.458h-4.677l10.214 8.374-11.132 9.16h4.672l8.793-7.24 8.8 7.24h4.678l-11.135-9.16zM226.906 13.973v17.6h3.514V24.55h9.616l6.914 7.023h4.176l-6.922-7.094c3.109.004 6.409-2.415 6.409-5.213 0-2.799-2.897-5.293-7.485-5.293h-16.222zm3.511 2.725h13.217c1.469 0 3.402.954 3.402 2.606 0 1.994-1.985 2.626-3.712 2.626H230.42l-.003-5.232zM287.721 34.374a24.329 24.329 0 01-.663-.623s-1.16-1.124-1.717-1.8a823.956 823.956 0 00-2.724-3.291l-1.79-2.149a91.266 91.266 0 01-2.145-2.678c-.55-.719-1.266-1.265-1.061-2.098.194-.824 3.167-4.646 4.586-6.384 0 0 1.155-1.393 2.806-3.38v.018C288.08 8.314 292.894 2.6 295.399 0c0 0-2.62.157-5.392 3.11-1.365 1.46-13.754 14.165-14.185 14.543-.644.57-1.179.387-1.651-.07-.369-.356-1.593-1.97-2.274-3.026-.893-1.39-1.858-2.766-2.561-4.26-.038-.09-.08-.154-.109-.215l-.002-.009-.004-.01-.051-.093c-.2-.41-.291-.579-.355-.872-.061-.262-.121-.66-.241-1.461l-.038-.285-.009-.008V7.33c-.146-1.816-.595-3.165-1.331-4.016-.648-.764-1.392-.915-1.644-.941h-.028a1.81 1.81 0 00-.312-.01c-.975.135-1.793.735-2.438 1.796-.119.221-.22.451-.304.688a6.988 6.988 0 00-.36 1.46c-.143 1.16.072 2.155.638 2.962.33.41.906.939 1.466 1.453.391.362.758.695 1.039.984 1.26 1.308 2.236 2.836 3.248 4.324.763 1.129 1.634 2.195 2.391 3.336.169.275.33.524.46.753.02.026.037.055.05.086.557.925.75 1.542.013 2.624-.312.467-1.694 2.199-2.426 3.14a441.44 441.44 0 00-3.301 4.313c-2.042 2.693-4.031 5.431-5.789 8.297-.938 1.522-2.279 3.3-2.187 5.181.154 3.224 3.837 3.392 5.889 1.794.855-.663 1.325-1.32.747-1.76-1.086-.827-.878-2.096.815-5.29.616-1.185 5.078-7.243 8.646-12.02 0 0 .398-.534.389-.52.158-.212.425-.502.835-.502.394-.004.688.502.948.84 1.943 2.586 2.721 3.674 4.421 6.364.491.774 1.173 2.118 1.61 3.01a.103.103 0 01-.015-.008l.007.007c.519.924.954 1.893 1.302 2.896.343.951.722 2.023 1.685 2.785.433.33.949.532 1.489.583h.028c1.754.15 3.27-1.214 3.446-3.1.014-.133.02-.266.018-.4-.026-1.074-.446-2.102-1.281-3.117-.201-.23-.573-.578-.97-.948zM28.129 49.79h-1.33v-9.509h-2.705v-1.168h6.754v1.168h-2.72v9.51zM38.207 49.79h-1.33v-5.144h-3.703v5.144h-1.328V39.113h1.328v4.367h3.702v-4.367h1.33V49.79zM39.658 39.113h5.575v1.168h-4.246v3.35h4.004v1.168h-4.004v3.828h4.427v1.168h-5.756V39.113zM50.31 39.113h2.236l2.16 8.464h.031l2.161-8.464h2.236v10.678h-1.33v-9.332h-.03l-2.387 9.331h-1.33L51.67 40.46h-.028v9.331H50.31V39.113zM63.032 39.113h1.784l2.9 10.678h-1.391l-.771-2.931h-3.445l-.8 2.93H59.92l3.112-10.677zm-.65 6.67h2.902l-1.375-5.16h-.03l-1.496 5.16zM68.473 39.113h1.33v5.174h.03l3.731-5.174h1.481l-3.264 4.456 3.535 6.221h-1.48l-2.916-5.144-1.118 1.51v3.634h-1.33V39.113zM76.028 39.113h5.575v1.168h-4.246v3.35h4.004v1.168h-4.004v3.828h4.427v1.168h-5.757V39.113zM82.964 44.96h3.687v1.168h-3.687V44.96zM88.221 39.113h1.332v7.507c0 1.57.514 2.303 1.828 2.303 1.42 0 1.843-.808 1.843-2.303v-7.507h1.33v7.507c0 2.05-1.057 3.38-3.173 3.38-2.16 0-3.158-1.181-3.158-3.38l-.002-7.507zM95.882 39.113h2.75c.937 0 3.341 0 3.341 3.066 0 1.989-1.284 3.095-3.113 3.095h-1.647v4.517h-1.33V39.113zm1.33 5.085h1.586c.967 0 1.783-.658 1.783-2.079 0-1.168-.559-1.93-1.874-1.93h-1.495v4.009zM113.576 44.452c0 2.691-.499 5.547-3.476 5.547s-3.475-2.856-3.475-5.547c0-2.692.498-5.549 3.475-5.549 2.977 0 3.476 2.857 3.476 5.549zm-5.561 0c0 2.467.242 4.47 2.085 4.47 1.844 0 2.086-2.003 2.086-4.47 0-2.468-.242-4.471-2.086-4.471-1.843 0-2.085 2.003-2.085 4.47zM114.875 39.113h5.576v1.168h-4.246v3.35h4.004v1.168h-4.004v4.995h-1.33v-10.68zM125.24 39.113h2.236l2.161 8.464h.031l2.16-8.464h2.237v10.678h-1.33v-9.332h-.028l-2.387 9.331h-1.33l-2.39-9.331h-.03v9.331h-1.33V39.113zM137.963 39.113h1.783l2.901 10.678h-1.392l-.771-2.931h-3.444l-.801 2.93h-1.392l3.116-10.677zm-.65 6.67h2.901l-1.375-5.16h-.03l-1.496 5.16zM143.403 39.113h1.33v5.174h.03l3.732-5.174h1.481l-3.264 4.457 3.536 6.22h-1.481l-2.917-5.143-1.117 1.51v3.634h-1.33V39.113zM150.958 39.113h5.576v1.168h-4.245v3.35h4.004v1.168h-4.004v3.828h4.427v1.168h-5.758V39.113zM157.893 44.96h3.687v1.168h-3.687V44.96zM163.151 39.113h1.33v7.507c0 1.57.514 2.303 1.829 2.303 1.42 0 1.843-.808 1.843-2.303v-7.507h1.329v7.507c0 2.05-1.057 3.38-3.172 3.38-2.161 0-3.159-1.181-3.159-3.38v-7.507zM170.812 39.113h2.75c.937 0 3.341 0 3.341 3.066 0 1.989-1.284 3.095-3.113 3.095h-1.647v4.517h-1.33l-.001-10.678zm1.33 5.085h1.585c.967 0 1.782-.658 1.782-2.079 0-1.168-.559-1.93-1.873-1.93h-1.496l.002 4.009zM183.277 39.113h1.784l2.901 10.678h-1.392l-.771-2.931h-3.442l-.801 2.93h-1.39l3.111-10.677zm-.649 6.67h2.901l-1.375-5.16h-.03l-1.496 5.16zM188.717 39.113h3.49c1.693 0 2.765.987 2.765 2.677 0 1.168-.407 2.393-1.661 2.692v.03c.936.105 1.465.867 1.526 1.78l.093 1.823c.06 1.182.256 1.48.574 1.676h-1.602c-.227-.224-.332-1.017-.362-1.542l-.093-1.66c-.106-1.465-.922-1.555-1.602-1.555h-1.798v4.755h-1.33V39.113zm1.33 4.845h1.315c.785 0 2.22 0 2.22-2.063 0-1.047-.709-1.705-1.949-1.705h-1.586v3.768zM199.581 49.79h-1.329v-9.509h-2.706v-1.168h6.755v1.168h-2.72v9.51zM203.297 39.113h1.331v10.678h-1.331V39.113zM210.959 41.88c0-1.122-.408-1.9-1.678-1.9-1.118 0-1.783.599-1.783 1.735 0 3.006 5.092 1.211 5.092 5.114 0 2.468-1.828 3.17-3.354 3.17-2.523 0-3.264-1.285-3.264-3.559h1.329c0 1.197.076 2.483 2.025 2.483 1.058 0 1.875-.748 1.875-1.884 0-3.021-5.093-1.272-5.093-5.19 0-.986.423-2.946 3.158-2.946 2.055 0 2.992 1.017 3.022 2.976h-1.329zM216.912 49.79h-1.33v-9.509h-2.705v-1.168h6.754v1.168h-2.72l.001 9.51zM225.208 41.88c0-1.122-.408-1.9-1.678-1.9-1.119 0-1.783.599-1.783 1.735 0 3.006 5.093 1.211 5.093 5.114 0 2.468-1.829 3.17-3.356 3.17-2.523 0-3.263-1.285-3.263-3.559h1.329c0 1.197.076 2.483 2.025 2.483 1.058 0 1.874-.748 1.874-1.884 0-3.021-5.092-1.272-5.092-5.19 0-.986.423-2.946 3.158-2.946 2.055 0 2.992 1.017 3.022 2.976h-1.329z" fill="#231815"/></svg>