<svg width="120" height="50" fill="none" xmlns="http://www.w3.org/2000/svg"><path d="M5.179 49.328c.155 0 .275.12.275.276 0 .154-.12.275-.275.275H2.524a.29.29 0 01-.293-.293v-5.283a.29.29 0 01.293-.293.29.29 0 01.293.293v5.025h2.362zM6.98 49.655c0 .156-.13.294-.293.294a.297.297 0 01-.293-.294v-5.352c0-.155.13-.293.293-.293.164 0 .293.138.293.293v5.352zM8.946 49.655a.29.29 0 01-.293.294.29.29 0 01-.293-.294v-5.283a.29.29 0 01.293-.293h2.766c.147 0 .267.12.267.267 0 .147-.12.268-.267.268H8.946v2.146h1.896a.27.27 0 01.267.267.27.27 0 01-.267.268H8.946v2.36zM12.773 49.879a.29.29 0 01-.293-.293V44.37a.29.29 0 01.293-.292h2.766c.147 0 .267.12.267.267 0 .147-.12.267-.267.267h-2.473v2.077h1.896c.146 0 .267.12.267.267 0 .147-.121.268-.267.268h-1.896v2.12h2.568c.146 0 .267.12.267.267 0 .146-.12.267-.267.267h-2.861zM18.513 47.94h-1.724a.232.232 0 110-.465h1.724c.13 0 .232.104.232.233a.23.23 0 01-.232.232zM18.668 44.63a.272.272 0 01-.276-.274c0-.156.121-.277.276-.277h3.663c.155 0 .276.121.276.277 0 .154-.12.274-.276.274h-1.534v5.025a.29.29 0 01-.293.293.29.29 0 01-.293-.293V44.63h-1.543zM23.926 49.655a.29.29 0 01-.293.293.29.29 0 01-.293-.293v-5.283a.29.29 0 01.293-.293h1.715c.957 0 1.646.724 1.646 1.647 0 .887-.612 1.603-1.543 1.646l1.578 2.103c.043.051.06.12.06.18a.29.29 0 01-.293.293.29.29 0 01-.25-.137l-1.75-2.439h-.87v2.283zm0-2.818h1.44c.603 0 1.034-.492 1.034-1.111 0-.638-.44-1.112-1.06-1.112h-1.414v2.223zM28.796 48.164l-.63 1.578c-.042.112-.137.206-.284.206a.296.296 0 01-.293-.293c0-.034.009-.094.026-.129l2.103-5.317c.043-.103.12-.199.276-.199.146 0 .24.096.284.2l2.103 5.316a.437.437 0 01.026.13c0 .155-.12.292-.301.292a.293.293 0 01-.285-.197l-.621-1.587h-2.404zm1.198-3.172l-1.017 2.638h2.043l-1.026-2.638zM37.38 44.294v5.361a.29.29 0 01-.293.293.29.29 0 01-.24-.12l-3.034-4.577v4.413c0 .155-.13.284-.285.284a.286.286 0 01-.284-.284v-5.37c0-.155.129-.284.284-.284.103 0 .19.06.233.12l3.05 4.585v-4.42c0-.156.13-.285.285-.285.155 0 .285.13.285.284zM40.406 44.492c-.905 0-1.25.45-1.25.94 0 1.43 3.258.82 3.258 2.896 0 1.077-.741 1.672-2.068 1.672-.983 0-1.716-.5-2.009-1.06a.306.306 0 01-.043-.156c0-.155.121-.275.276-.275.103 0 .19.052.241.139.276.447.776.818 1.535.818.948 0 1.482-.38 1.482-1.137 0-1.612-3.258-.854-3.258-2.897 0-.793.578-1.474 1.836-1.474.819 0 1.482.346 1.844.889a.285.285 0 01.052.163.272.272 0 01-.276.276.272.272 0 01-.224-.112c-.258-.319-.672-.681-1.396-.681zM44.07 49.655a.29.29 0 01-.294.294.29.29 0 01-.293-.294v-5.283a.29.29 0 01.293-.293h2.767c.147 0 .267.12.267.267 0 .147-.12.268-.267.268H44.07v2.146h1.897c.146 0 .267.12.267.267a.27.27 0 01-.267.268h-1.897v2.36zM47.552 46.984c0-2.043 1.017-3.026 2.688-3.026 1.673 0 2.69.983 2.69 3.026 0 2.026-1.017 3.016-2.69 3.016-1.671 0-2.688-.99-2.688-3.016zm.603 0c0 1.68.767 2.482 2.085 2.482 1.32 0 2.087-.801 2.087-2.482 0-1.69-.767-2.49-2.087-2.49-1.318-.001-2.085.8-2.085 2.49zM54.585 49.655a.29.29 0 01-.293.293.29.29 0 01-.293-.293v-5.283a.29.29 0 01.293-.293h1.715c.957 0 1.646.724 1.646 1.647 0 .887-.612 1.603-1.542 1.646l1.577 2.103c.043.051.06.12.06.18a.29.29 0 01-.293.293.29.29 0 01-.25-.137l-1.75-2.439h-.87v2.283zm0-2.818h1.44c.602 0 1.034-.492 1.034-1.111 0-.638-.44-1.112-1.06-1.112h-1.414v2.223zM60.99 48.776l-1.802-3.352v4.24a.287.287 0 01-.284.285.287.287 0 01-.285-.284v-5.37c0-.156.13-.285.285-.285.13 0 .215.077.258.164l2.085 3.904 2.095-3.904c.034-.06.103-.164.258-.164.156 0 .285.13.285.284v5.37c0 .155-.13.284-.285.284a.287.287 0 01-.284-.284v-4.24l-1.81 3.352a.287.287 0 01-.259.164.289.289 0 01-.258-.163zM65.85 49.655a.296.296 0 01-.293.294.297.297 0 01-.293-.294v-5.352c0-.155.13-.293.293-.293.165 0 .293.138.293.293v5.352zM71.28 44.294v5.361a.29.29 0 01-.293.293.291.291 0 01-.241-.12l-3.034-4.577v4.413a.286.286 0 01-.284.284.287.287 0 01-.285-.284v-5.37c0-.155.13-.284.285-.284.103 0 .19.06.232.12l3.051 4.585v-4.42c0-.156.13-.285.285-.285.155 0 .284.13.284.284zM76.555 48.776v-1.25h-1.438a.268.268 0 01-.267-.267c0-.146.12-.267.267-.267h1.74c.139 0 .268.12.268.267v1.509c0 .103-.034.19-.112.284-.414.482-1.017.948-2.06.948-1.673 0-2.689-.896-2.689-3.016 0-2.043 1.017-3.025 2.69-3.025.818 0 1.533.353 1.939.913.043.06.06.12.06.18a.272.272 0 01-.276.277.272.272 0 01-.224-.112c-.293-.406-.844-.724-1.5-.724-1.327 0-2.086.801-2.086 2.49 0 1.793.758 2.483 2.086 2.483.801 0 1.318-.336 1.602-.69zM84.563 44.294v5.361a.29.29 0 01-.294.293.293.293 0 01-.242-.12l-3.033-4.577v4.413c0 .155-.13.284-.284.284a.287.287 0 01-.285-.284v-5.37c0-.155.13-.284.285-.284.103 0 .189.06.232.12l3.051 4.585v-4.42c0-.156.13-.285.285-.285.155 0 .285.13.285.284zM85.856 48.112v-3.808c0-.165.129-.294.293-.294a.29.29 0 01.293.294v3.808c0 .681.25 1.337 1.44 1.337 1.18 0 1.43-.656 1.43-1.337v-3.808c0-.165.13-.294.293-.294a.29.29 0 01.293.294v3.808c0 .95-.387 1.888-2.016 1.888-1.63 0-2.026-.939-2.026-1.888zM91.028 44.63a.271.271 0 01-.276-.274c0-.156.12-.277.276-.277h3.662c.156 0 .276.121.276.277 0 .154-.12.274-.276.274h-1.534v5.025a.29.29 0 01-.293.293.29.29 0 01-.293-.293V44.63h-1.542zM96.458 49.655a.29.29 0 01-.294.293.29.29 0 01-.293-.293v-5.283a.29.29 0 01.293-.293h1.715c.957 0 1.647.724 1.647 1.647 0 .887-.612 1.603-1.544 1.646l1.578 2.103c.043.051.06.12.06.18a.29.29 0 01-.293.293.29.29 0 01-.25-.137l-1.75-2.439h-.87v2.283h.001zm0-2.818h1.439c.603 0 1.034-.492 1.034-1.111 0-.638-.44-1.112-1.06-1.112h-1.414v2.223h.001zM101.164 49.655a.297.297 0 01-.294.294.297.297 0 01-.293-.294v-5.352c0-.155.13-.293.293-.293.165 0 .294.138.294.293v5.352zM102.336 44.63a.271.271 0 01-.275-.274c0-.156.12-.277.275-.277H106c.155 0 .274.121.274.277a.27.27 0 01-.274.274h-1.535v5.025a.29.29 0 01-.294.293.29.29 0 01-.292-.293V44.63h-1.543zM107.767 49.655c0 .156-.13.294-.295.294a.296.296 0 01-.292-.294v-5.352c0-.155.129-.293.292-.293.165 0 .295.138.295.293v5.352zM108.835 46.984c0-2.043 1.018-3.026 2.689-3.026 1.672 0 2.688.983 2.688 3.026 0 2.026-1.016 3.016-2.688 3.016-1.671 0-2.689-.99-2.689-3.016zm.604 0c0 1.68.767 2.482 2.085 2.482 1.319 0 2.086-.801 2.086-2.482 0-1.69-.767-2.49-2.086-2.49-1.318 0-2.085.8-2.085 2.49zM119.334 44.294v5.361a.29.29 0 01-.294.293.293.293 0 01-.242-.12l-3.033-4.577v4.413a.286.286 0 01-.284.284.287.287 0 01-.285-.284v-5.37c0-.155.13-.284.285-.284.103 0 .189.06.232.12l3.051 4.585v-4.42c0-.156.13-.285.285-.285.155 0 .285.13.285.284zM53.956 38.876V24.69h5.314V21.58H44.814v3.112h5.317v14.185h3.825zM14.996 27.609c.148.39.614 1.444 1.495 2.645l6.224 8.601h3.478V21.557h-3.527v11.687h-.048c-.1-.416-.663-1.421-1.594-2.769l-6.126-8.918h-3.505v17.298h3.553V27.609h.05zM101.268 21.576h-3.824v17.298h3.824V21.576zM108.939 21.554c-3.208 5.07-4.877 11.514-5.829 17.32h3.844c.198-1.37.465-2.79.785-4.19h6.617c.343 1.4.586 2.82.759 4.19h4.216c-1.006-5.927-2.623-12.029-5.857-17.32h-4.535zm-.637 10.264c.687-2.622 1.593-5.095 2.721-7.352h.05c1.151 2.28 2.032 4.78 2.717 7.352h-5.488zM90.868 24.347c1.105 0 2.354.318 3.479.93l1.25-3.162c-1.25-.562-2.818-1.002-4.948-1.002-5.809 0-8.58 4.48-8.58 9.31 0 5.095 3.31 8.87 8.58 8.87 1.69 0 3.725-.563 4.974-1.198l-1.03-2.968a6.866 6.866 0 01-3.454.93c-2.721 0-5.098-2.132-5.098-5.733 0-2.744 1.225-5.977 4.827-5.977zM28.437 21.576v10.44c0 5.537 3.576 7.3 8.847 7.3 2.032 0 4.066-.22 6.052-.586V21.576h-3.724v14.555a9.238 9.238 0 01-2.157.27c-2.697 0-5.195-.981-5.195-4.043V21.576h-3.823zM80.094 21.576H76.27v17.298h3.823V21.576zM73.813 26.48c0-4.362-4.022-4.95-7.452-4.95h-5.61v17.297h3.822v-6.91h1.201c.391 0 .76.072 1.152.856l3.186 6.109h4.578l-4.678-7.92c2.255-.467 3.8-2.109 3.8-4.482zm-7.156 2.642h-2.085v-4.58h1.863c1.519 0 3.406.246 3.406 2.23 0 1.908-1.716 2.35-3.184 2.35z" fill="#231815"/><path d="M49.152 11.082C44.334 4.232 36.372 0 27.48 0 12.303 0 0 12.521 0 27.967c0 3.862.77 7.541 2.16 10.888h4.924a24.057 24.057 0 01-3.06-11.763c0-13.658 11.402-24.73 25.468-24.73 7.835.001 14.744 3.361 19.66 8.72z" fill="#231815"/></svg>