<svg width="106" height="50" fill="none" xmlns="http://www.w3.org/2000/svg"><path fill-rule="evenodd" clip-rule="evenodd" d="M60.178 46.356h2.142l-1.068-2.031-1.074 2.031zM28.107 43.51v1.94h.184c.423 0 .892.008 1.313-.036.188-.017.374-.056.553-.118.203-.072.415-.182.55-.352a.823.823 0 00.162-.526c0-.288-.123-.482-.365-.632-.368-.232-.894-.276-1.313-.276h-1.084zm-10.34 2.846h2.142l-1.068-2.031-1.073 2.031zm85.904 3.522v-7.512h1.415v7.512h-1.415zm-9.098-4.546l3.575-2.966h1.957l-4.445 3.68 4.938 3.832h-2.064l-3.96-3.073v3.073H93.21v-7.512h1.364l-.001 2.966zm-6.655-1.353a4.723 4.723 0 00-.939-.397 3.075 3.075 0 00-.851-.124c-.375 0-.758.07-1.066.298-.22.162-.351.361-.351.64a.602.602 0 00.202.48c.254.227.923.46 1.244.569l.18.059c.52.169 1.283.44 1.698.81.21.182.38.406.5.658.117.25.177.523.176.799 0 .678-.307 1.217-.846 1.616-.585.435-1.292.592-2.01.592-.403 0-.803-.056-1.19-.164a5.502 5.502 0 01-1.17-.485l-.177-.097v-1.477l.518.321c.336.215.695.392 1.071.526.3.106.617.162.936.165.382 0 .803-.063 1.117-.298a.841.841 0 00.352-.722.631.631 0 00-.22-.505c-.274-.245-1.045-.507-1.392-.622-.567-.19-1.347-.48-1.793-.89-.378-.346-.56-.794-.56-1.305 0-.659.296-1.188.821-1.577.577-.426 1.284-.573 1.988-.573a4.655 4.655 0 012.075.486l.192.093v1.396l-.505-.272zM70.94 47.556l2.302-5.19h.688l2.368 5.189 2.285-5.189h1.489l-3.501 7.632h-.577l-2.397-5.258-2.372 5.258h-.568l-3.574-7.632h1.501l2.356 5.19zm-8.022-.058h-3.335l-1.255 2.382h-1.499l4.083-7.574h.679l4.08 7.572h-1.493l-1.26-2.38zm-11.043-4H46.35v-1.132h7.815v.696l-5.86 5.654h5.86v1.162h-8.18v-.716l5.888-5.664zm-10.244.48a4.745 4.745 0 00-.94-.396 3.076 3.076 0 00-.85-.124c-.375 0-.759.07-1.066.298-.22.162-.352.361-.352.64a.602.602 0 00.203.48c.254.227.922.46 1.244.569l.18.059c.52.169 1.283.44 1.698.81.21.182.38.406.5.658.117.25.177.523.176.799 0 .678-.308 1.217-.846 1.616-.586.435-1.293.592-2.01.592-.404 0-.806-.054-1.194-.163a5.51 5.51 0 01-1.171-.485l-.176-.097v-1.477l.518.322c.336.215.696.391 1.071.525.3.106.617.162.936.166.382 0 .803-.063 1.117-.299a.841.841 0 00.352-.722.633.633 0 00-.22-.505c-.274-.244-1.045-.506-1.392-.622-.567-.189-1.347-.48-1.793-.89-.378-.346-.56-.794-.56-1.305 0-.659.296-1.187.821-1.576.577-.427 1.284-.573 1.989-.573a4.65 4.65 0 012.075.483l.191.093v1.396l-.5-.271zm-10.534 2.2c.093.08.178.17.257.264l2.795 3.436h-1.65l-1.458-1.804a17.55 17.55 0 00-.68-.798 3.955 3.955 0 00-.423-.42 1.072 1.072 0 00-.452-.19c-.314-.064-.7-.068-1.02-.068h-.358v3.28h-1.365v-7.512h2.41c.747 0 1.607.094 2.256.492.575.353.886.88.886 1.558 0 .49-.159.93-.502 1.283-.201.2-.437.363-.696.478zM20.508 47.5h-3.337l-1.255 2.381h-1.499l4.081-7.572h.679l4.083 7.57h-1.494L20.508 47.5zm-16.648.057l2.302-5.19h.688l2.368 5.19 2.285-5.19h1.489L9.492 50h-.58l-2.397-5.258L4.143 50h-.57L0 42.366h1.5l2.36 5.191z" fill="#231815"/><path d="M92.84 26.99c.505.06 1.197-.18 2.073-.717a26.491 26.491 0 002.781-1.995 44.85 44.85 0 002.882-2.558c.944-.911 1.77-1.74 2.477-2.489.44-.478.819-.785 1.138-.92.32-.134.556-.134.708 0 .152.136.21.353.176.651-.034.299-.186.628-.454.988a40.644 40.644 0 01-3.11 3.409 63.709 63.709 0 01-2.477 2.309 35.132 35.132 0 01-2.706 2.175 21.69 21.69 0 01-2.704 1.681c-.894.464-1.711.726-2.453.785-.877.089-1.644-.106-2.3-.582-.658-.477-1.222-1.098-1.694-1.861a11.285 11.285 0 01-1.138-2.467A19.473 19.473 0 0185.407 23l-4.652 5.874c-.41.452-.898.824-1.441 1.099-.557.284-1.07.425-1.542.425h-1.467c-.472 0-.75-.149-.835-.448-.084-.299.059-.658.43-1.076L97.288 1.79a4.263 4.263 0 011.416-1.1c.574-.283 1.096-.425 1.568-.425h1.466c.472 0 .75.15.835.448.084.3-.059.658-.43 1.077l-14.564 18.43a9.012 9.012 0 002.856-.919 19.434 19.434 0 002.427-1.48 20.926 20.926 0 001.87-1.502c.523-.479.902-.807 1.138-.987.201-.186.432-.338.683-.448.213-.088.434-.155.659-.202.258-.048.521-.07.784-.067h1.163c.44 0 .877.015 1.315.044.437.03.757.104.96.225.203.119.245.32.127.605-.119.284-.515.665-1.189 1.143-.674.479-1.449.987-2.326 1.525a51.724 51.724 0 01-2.705 1.547c-.927.493-1.854.942-2.78 1.345-.928.404-1.796.696-2.605.875.083.52.193 1.037.329 1.547.143.559.33 1.106.556 1.637.2.479.483.919.835 1.3.337.359.725.553 1.163.583zM59.466 37.822c2.199-3.324 3.636-4.668 6.282-7.757a241.36 241.36 0 013.034-3.476 31.124 31.124 0 01-3.463 2.444c-1.164.703-2.2 1.13-3.11 1.28-.978.179-1.736.135-2.276-.133-.539-.268-.884-.687-1.036-1.256-.152-.568-.127-1.233.076-1.995.202-.763.573-1.547 1.112-2.355a32.83 32.83 0 011.543-2.22c.657-.881 1.323-1.749 1.997-2.601a112.21 112.21 0 011.87-2.31c.574-.687.962-1.136 1.163-1.345.387-.46.87-.828 1.416-1.076.573-.27 1.096-.404 1.568-.404h1.466c.472 0 .75.142.835.426.085.284-.059.635-.43 1.054l-.96 1.076a44.145 44.145 0 00-1.694 2.04 786.91 786.91 0 01-1.947 2.467 51.8 51.8 0 00-1.77 2.354c-.64.897-.994 1.547-1.062 1.95-.068.404.034.636.304.696.303.088.825-.084 1.567-.516s1.568-1 2.478-1.704a42.802 42.802 0 002.78-2.354 50.066 50.066 0 002.478-2.422c.776-.986 1.424-1.8 1.947-2.443.523-.643.852-1.024.986-1.144.386-.46.87-.828 1.416-1.076.573-.27 1.095-.404 1.567-.404h1.467c.472 0 .741.142.809.426.067.284-.085.635-.455 1.054-.102.09-.43.471-.986 1.144-.556.672-1.29 1.576-2.2 2.712a383.354 383.354 0 00-6.978 9.013c-1.347 1.793-5.25 6.869-6.717 8.856l-5.077-.001zM52.815 6.99c.81 0 2.073-.007 3.792-.022 1.72-.015 3.657-.038 5.815-.067l2.175-2.602c.37-.419.842-.77 1.415-1.054.574-.284 1.096-.426 1.568-.426h1.466c.472 0 .75.142.835.426.084.284-.06.635-.43 1.054-.067.059-.295.32-.683.784l-1.443 1.728c1.686 0 3.355-.007 5.006-.022l4.576-.044c1.4-.015 2.613-.03 3.641-.045 1.029-.014 1.779-.021 2.25-.022a5.915 5.915 0 012.402.404c.758.299 1.34.635 1.745 1.009.404.373.556.725.454 1.054-.1.328-.573.492-1.415.493-.506 0-1.492.03-2.958.088-1.466.059-3.203.133-5.208.224-2.006.09-4.18.18-6.523.269l-7.001.27a3471.71 3471.71 0 01-3.287 4.035 444.512 444.512 0 00-3.236 4.013 252.576 252.576 0 00-2.654 3.385c-.759.987-1.29 1.69-1.593 2.108-.607.897-.944 1.547-1.01 1.95-.068.404.016.636.252.696.337.088.901-.106 1.694-.583.792-.477 1.668-1.105 2.629-1.883.96-.777 1.93-1.614 2.907-2.511a37.689 37.689 0 002.478-2.466c.472-.479.876-.785 1.213-.92.337-.134.582-.134.734 0 .15.135.201.352.151.65-.05.3-.194.628-.43.987-.235.299-.63.747-1.186 1.345a42.677 42.677 0 01-1.975 1.975 81.04 81.04 0 01-2.477 2.243 34.976 34.976 0 01-2.731 2.152 30.799 30.799 0 01-2.705 1.726c-.877.494-1.686.8-2.427.92-1.011.18-1.786.135-2.326-.133-.54-.267-.886-.686-1.037-1.255-.151-.568-.126-1.233.076-1.996.202-.762.556-1.547 1.062-2.354.236-.359.734-1.039 1.494-2.04.759-1.002 1.66-2.153 2.705-3.454 1.044-1.3 2.157-2.69 3.338-4.17l3.388-4.238c-2.292.09-4.29.165-5.991.225-1.703.06-2.824.089-3.363.088-.877.03-1.366-.165-1.466-.583-.101-.418.034-.874.404-1.367.371-.493.919-.956 1.644-1.39.724-.433 1.473-.651 2.246-.654zM35.584 21.654c-.876.987-1.55 1.846-2.021 2.579-.471.732-.783 1.36-.935 1.883-.152.524-.186.95-.101 1.279.084.329.244.568.48.717.606.359 1.525.246 2.755-.336 1.23-.583 2.486-1.622 3.767-3.117.641-.748 1.231-1.487 1.77-2.22.54-.732.97-1.42 1.29-2.063.32-.642.506-1.195.556-1.659.05-.463-.06-.8-.329-1.008-.27-.21-.674-.262-1.214-.157-.539.104-1.147.336-1.823.694-.674.359-1.382.829-2.124 1.411a14.641 14.641 0 00-2.071 1.997zm-4.45 7.49a2.567 2.567 0 01-.505-1.346c-3.043 3.986-4.596 5.943-7.478 10.022h-5.19c1.171-2.076 4.185-5.393 5.943-7.623.977-1.24 1.98-2.504 3.008-3.79a449.6 449.6 0 002.982-3.766c.96-1.226 1.82-2.317 2.578-3.274.759-.957 1.382-1.734 1.871-2.332.489-.598.75-.912.784-.942.386-.46.87-.827 1.416-1.076.573-.269 1.095-.403 1.567-.403h1.467c.471 0 .75.142.834.426.085.284-.058.635-.43 1.053l-.859.987c1.787-1.076 3.447-1.816 4.98-2.22 1.534-.403 2.689-.26 3.464.426.506.479.733 1.137.683 1.974-.05.837-.33 1.763-.835 2.78-.506 1.017-1.205 2.078-2.099 3.184a28.964 28.964 0 01-3.008 3.183c-1.146 1.017-2.292 1.832-3.439 2.445-1.146.613-2.224 1.024-3.235 1.234-1.012.21-1.914.232-2.706.067-.792-.164-1.39-.5-1.793-1.01zm-8.04-10.808c1.347-1.674 2.493-3.348 3.438-5.023.945-1.674 1.628-3.221 2.048-4.641.421-1.42.556-2.668.405-3.745-.152-1.076-.632-1.853-1.441-2.331-.81-.479-1.888-.606-3.237-.381-1.348.224-2.823.732-4.425 1.524-1.601.794-3.22 1.84-4.854 3.14a28.046 28.046 0 00-4.476 4.461c-1.355 1.698-2.426 3.379-3.236 5.023-.809 1.644-1.356 3.169-1.643 4.574-.286 1.405-.311 2.63-.075 3.677.236 1.046.758 1.808 1.567 2.287.809.479 1.845.613 3.11.403 1.264-.21 2.62-.702 4.07-1.48 1.45-.777 2.932-1.8 4.45-3.071a31.507 31.507 0 004.298-4.417zm8.203-16.232c.876.987 1.297 2.235 1.264 3.745-.034 1.51-.38 3.116-1.037 4.818-.657 1.705-1.533 3.432-2.629 5.18a40.984 40.984 0 01-3.515 4.82c-2.02 2.362-4.186 4.313-6.497 5.853-2.31 1.54-4.552 2.646-6.725 3.318-2.174.673-4.18.912-6.019.717-1.838-.194-3.295-.859-4.372-1.993-.977-1.017-1.534-2.31-1.669-3.88-.135-1.57.11-3.283.734-5.135.624-1.852 1.618-3.773 2.983-5.763 1.365-1.99 3.06-3.895 5.082-5.717a37.617 37.617 0 016.37-4.664c2.227-1.286 4.359-2.212 6.397-2.778 2.04-.57 3.91-.75 5.613-.54 1.702.209 3.042.882 4.02 2.02z" fill="#231815"/></svg>