<svg width="34" height="50" fill="none" xmlns="http://www.w3.org/2000/svg"><path d="M13.463 4.56c-1.44.224-1.732 1.172-1.79 1.489-1.153-.085-2.056.065-3.093.501-.953.397-1.563 1.022-1.825 1.855-.366 1.18 0 2.723 1.03 4.347l.058.035.062-.039c.455-.925 1.25-1.114 1.832-1.114 1.45 0 3.135 1.153 3.926 2.68.795 1.55.745 2.384.598 3.614-.235 1.92-2.307 4.061-4.914 4.061-1.654 0-3.27-.875-4.597-2.534-2.812-3.52-1.682-7.37-1.084-8.859l-.02-.08-.08-.005c-.301.2-.587.47-.857.81a9.236 9.236 0 00-1.265 2.766c-.667 2.51-.378 6.202 2.445 9.033 1.77 1.782 4.016 2.761 6.322 2.761 3.83 0 7.768-2.765 7.888-8.041.1-4.274-2.272-6.503-4.274-7.622a5.021 5.021 0 00-2.441-.644c-.764 0-1.32.177-1.566.32-.224-.54-.216-1.022.023-1.396.509-.795 2.052-1.022 4.312-.621l.07-.03.003-.074c-.085-.14-.162-.347-.05-.548.108-.193.482-.52 1.782-.52 0 0 .594-.008.93.019 1.037.073 2.148.304 2.36.366-.34.405-1.6 2.264.548 5.288.987 1.396 2.364 2.665 3.98 3.672 1.832 1.191 3.803 1.878 5.407 1.878h.004c1.215 0 2.145-.386 2.689-1.11.582-.772.381-1.694.138-2.411-.44-1.25-1.57-2.955-2.468-3.726h-.089l-.015.089c.756 1.272.98 2.437.575 2.962-.317.412-.9.64-1.628.64-.849 0-1.824-.293-2.746-.83a7.166 7.166 0 01-.856-.59c-2.033-1.65-3.53-4.126-2.457-5.669.335-.478 1.076-.818 1.982-.914l.062-.058-.039-.077c-.362-.17-1.327-.613-1.327-.613-.011-.008-1.245-.625-3.575-1.073a14.92 14.92 0 00-2.788-.239c-1.038 0-2.141.085-3.182.251M13.364 43.25s-2.206 4.976-2.4 5.428c-.289.672-.175 1.319-.175 1.319h5.005v-1.178H13.29s2.06-4.775 2.287-5.267c.347-.752.173-1.368.173-1.368h-4.414c-.292.057-.575.23-.575.688v.378h2.602M7.995 46.014c0 .174-.268.317-.6.317-.33 0-.601-.143-.601-.317v-3.077s1.201-.263 1.201.68v2.397zm-1.198 3.983V47.3c.192.04.392.068.599.084 1.558.123 2.809-.62 2.809-1.441v-2.55c0-.819-1.258-1.483-2.81-1.483s-2.81.664-2.81 1.483v6.039c.059.434.412.54.72.564h1.492M19.896 46.014c0 .174-.27.317-.6.317-.332 0-.602-.143-.602-.317v-3.077s1.202-.263 1.202.68v2.397zm-1.2 3.983V47.3c.192.04.393.068.6.084 1.559.123 2.81-.62 2.81-1.441v-2.55c0-.819-1.26-1.483-2.81-1.483-1.553 0-2.81.664-2.81 1.483v6.039c.058.434.412.54.718.564h1.492M28.573 50v-7.88h-.535c-.335.02-.733.164-.748.691V47.6l-.111-.356-1.689-4.592c-.111-.276-.45-.515-.75-.515h-1.748v7.172c.017.526.414.673.748.692h.538v-5.379l.054.22 1.783 4.646a.87.87 0 00.75.503l1.708.01M14.69 1.816L12.189.583l.896 3.439a14.867 14.867 0 012.754-.329l.642-.718.687.722c1.012.039 1.943.162 2.728.344L20.64.583l-2.418 1.233L16.395 0 14.69 1.816" fill="#231815"/><path d="M24.656 12.25c1.715 1.526 3.99 1.383 4.622-.034.282-.565-.295-2.218-1.94-2.242-.983.07-2.14 1.107-2.682 2.277zM.039 26.066L0 26.178l.046.05c1.682.497 4.061 1.932 6.206 3.74 2.626 2.215 4.412 4.575 4.342 5.743-.011.243-.108.425-.285.54-.586.386-2.064.016-3.891-.975l-.093.023.02.096c1.122.83 2.05 1.423 3.466 1.986a6.424 6.424 0 002.156.363c1.203 0 2.198-.32 2.657-.856.363-.428.498-.984.401-1.647-.285-1.928-2.506-4.478-5.661-6.502-2.773-1.778-5.758-2.843-7.98-2.843-.505 0-.956.058-1.345.17M20.908 25.163c-1.662 2.002-2.745 4.284-3.05 6.436-.305 2.162.212 3.932 1.458 4.98a4.01 4.01 0 001.823.865c.185.027.378.042.57.042h.005c.971 0 1.881-.366 2.487-.644.898-.459 1.746-1.11 1.873-1.326l-.003-.081-.078-.02c-.643.259-1.256.39-1.816.39-.682 0-1.256-.193-1.7-.567-1.63-1.376-1.03-4.816 1.342-7.665 1.639-1.974 3.82-3.25 5.552-3.25.683 0 1.257.193 1.704.57.764.645 1.06 1.774.84 3.174l.043.077.085-.027c.39-.617.64-1.126.918-2.198.242-1.01.25-1.804.03-2.568-.188-.663-.597-1.26-1.206-1.777-.745-.629-1.732-.96-2.85-.96-2.618 0-5.69 1.743-8.027 4.55" fill="#231815"/><path d="M26.433 25.992c-.701.69-.52 1.87.366 2.513.613.443 1.249.682 1.993.682 2.466 0 2.786-2.428 2.601-3.002-.428.27-.882.42-1.356.416-.887-.004-1.727-.513-2.425-1.38-.281.123-.809.385-1.179.77zM22.888 18.918c.004.277 0 .904.065 1.25.097 1.255 1.047 1.585 1.732 1.224.412-.239.827-.447 1.243-.623a11.62 11.62 0 01-.112-1.49c-.004-1.277-.585-1.85-1.312-2.208-.346-.17-.685-.373-1.02-.589-.119-.069-.23-.146-.346-.215-.177.966-.262 1.573-.25 2.65M22.525 30.658c-.386 1.166.096 1.887.83 2.35.88.556 1.431 1.143 1.427 1.818 0 .155-.034.313-.092.464.579-.085 2.374-.641 2.601-2.015.216-1.309-1.52-2.629-4.377-3.478-.146.29-.277.58-.39.86zM11.234 29.364c.363.293.706.586 1.026.887.524.486 1.527 1.284 2.521 1.377.625.053 2.179.327 2.911-1.42.12-.389.259-.778.42-1.168a32.936 32.936 0 00-1.669-.088c-.204-.004-.408-.004-.613-.004-1.65 0-3.208.15-4.596.416M7.78 35.26c.75.17 1.456-.806.622-2.34-.641-1.18-1.325-1.575-1.653-1.83-2.703 1.904-1.29 3.646 1.031 4.17" fill="#231815"/></svg>