<svg width="170" height="50" fill="none" xmlns="http://www.w3.org/2000/svg"><path fill-rule="evenodd" clip-rule="evenodd" d="M57.1 45.178a2.174 2.174 0 00-.513-.261 8.168 8.168 0 00-.577-.183l-.571-.154a3.077 3.077 0 01-.489-.173 1.086 1.086 0 01-.337-.233.471.471 0 01-.121-.335.646.646 0 01.285-.541c.097-.07.217-.125.358-.164.143-.041.31-.062.5-.062a1.929 1.929 0 01.88.193c.098.047.184.091.255.133.153.091.28.087.367.035a.35.35 0 00.105-.096l.234-.369-.031-.024a2.573 2.573 0 00-.807-.411 3.453 3.453 0 00-1.012-.142 2.9 2.9 0 00-.881.125 2.097 2.097 0 00-.65.33 1.435 1.435 0 00-.403.475c-.093.18-.14.366-.14.554 0 .235.047.438.14.601.09.16.214.298.367.407.148.107.32.197.514.264.187.065.38.123.577.174l.094.023.478.123c.186.047.345.102.486.169.138.064.25.146.335.24a.53.53 0 01.122.36.792.792 0 01-.332.657c-.107.078-.24.141-.396.186a1.989 1.989 0 01-.538.066 2.285 2.285 0 01-.78-.13 1.9 1.9 0 01-.272-.124 4.943 4.943 0 01-.215-.127c-.066-.039-.123-.072-.174-.098-.124-.063-.225-.056-.314-.01a.383.383 0 00-.106.081l-.277.366.03.026c.25.214.555.385.904.508.352.125.748.19 1.177.19.352 0 .67-.045.945-.132.276-.086.513-.208.704-.36a1.516 1.516 0 00.588-1.2 1.08 1.08 0 00-.141-.567 1.28 1.28 0 00-.368-.39zM62.59 45.423l1.478-.678c.07-.024.154-.08.154-.209v-.565l-1.632.73v-2.31h-.928v2.688l-.66.305c-.086.036-.132.101-.132.189v.577l.792-.354v2.03h3.555v-.704H62.59v-1.699zM70.924 45.647c0 .216-.032.416-.093.592-.061.178-.15.332-.266.459a1.17 1.17 0 01-.425.296c-.167.072-.36.108-.573.108-.213 0-.407-.036-.575-.11a1.206 1.206 0 01-.692-.757 1.785 1.785 0 01-.093-.592v-3.252h-.816v3.256c0 .307.051.598.15.864.101.265.247.498.434.691a2 2 0 00.688.458c.267.11.572.166.904.166.333 0 .636-.056.905-.166.27-.11.5-.265.686-.458.185-.192.33-.426.43-.691.1-.266.151-.557.151-.864V42.39h-.815v3.256zM79.706 46.662a2.678 2.678 0 01-.323.209 1.836 1.836 0 01-.347.142 2.337 2.337 0 01-.408.084 4.405 4.405 0 01-.501.027c-.3 0-.585-.045-.844-.136a1.951 1.951 0 01-.673-.39 1.84 1.84 0 01-.454-.632 2.096 2.096 0 01-.166-.855c0-.315.053-.6.16-.848a1.8 1.8 0 01.447-.633 1.94 1.94 0 01.68-.395 2.7 2.7 0 01.876-.136 2.49 2.49 0 011.12.224c.12.054.218.107.295.154.164.102.295.094.373.049a.253.253 0 00.083-.072l.313-.358-.037-.027a3.2 3.2 0 00-.927-.494 3.737 3.737 0 00-1.216-.184c-.465 0-.897.068-1.282.2-.387.132-.722.32-.999.559A2.522 2.522 0 0075 45.11c0 .397.074.767.22 1.1.148.333.358.622.622.86.267.238.593.425.97.557.376.132.8.2 1.261.2.531 0 .99-.072 1.366-.213.375-.14.699-.34.963-.591l.033-.033-.376-.334c-.093-.082-.231-.081-.353.006zM87.237 44.772h-2.736v-2.38h-.805v5.434h.805v-2.429h2.736v2.43h.806V42.39h-.806v2.38zM94.021 43.307l.035.107c.03.086.058.162.084.228l.859 2.106H93.04l.859-2.101c.042-.097.082-.211.122-.34zm.421-.916h-.84l-2.27 5.369-.028.066h.665a.31.31 0 00.198-.063.306.306 0 00.106-.14l.516-1.258h2.462l.515 1.26a.314.314 0 00.307.202h.666l-2.285-5.405-.012-.03zM100.384 45.914c0 .215-.019.402-.057.56-.038.151-.092.279-.163.377a.637.637 0 01-.262.214.885.885 0 01-.363.07.79.79 0 01-.242-.03c-.16-.056-.244-.043-.297.017a.242.242 0 00-.053.132 4.565 4.565 0 01-.015.206c-.007.07-.012.14-.017.212l-.002.04.033.009c.223.07.444.105.657.105.237 0 .45-.044.634-.132.183-.089.34-.216.468-.382a1.76 1.76 0 00.286-.608c.064-.236.096-.506.096-.804l-.001-3.509h-.682l-.02 3.523z" fill="#231815"/><mask id="a" maskUnits="userSpaceOnUse" x="104" y="42" width="7" height="8"><path d="M104.43 42.545h6.29V50h-6.29v-7.455z" fill="#fff"/></mask><g mask="url(#a)"><path fill-rule="evenodd" clip-rule="evenodd" d="M107.421 43.563c.013.041.025.08.039.119.031.096.063.18.091.254l.947 2.34h-2.157l.945-2.336c.047-.107.092-.234.135-.377zm3.119 5.818c-.041-.036-.099-.044-.169-.005a.316.316 0 01-.062.032.625.625 0 01-.251.043.372.372 0 01-.251-.077.25.25 0 01-.087-.206c0-.065.013-.124.042-.181a.688.688 0 01.113-.166.955.955 0 01.155-.138c.054-.037.107-.07.159-.098h.224l-2.515-6.006-.014-.034h-.925l-2.499 5.966-.03.074h.732a.333.333 0 00.217-.07.327.327 0 00.117-.154l.568-1.4h2.711l.568 1.4a.388.388 0 00.12.157.322.322 0 00.075.043 1.57 1.57 0 00-.333.306.76.76 0 00-.183.48c0 .198.081.359.241.478.154.116.367.175.634.175.153 0 .301-.021.44-.063.14-.041.256-.096.349-.163l.034-.025-.137-.31a.158.158 0 00-.043-.058z" fill="#231815"/></g><path fill-rule="evenodd" clip-rule="evenodd" d="M116.663 46.662a2.577 2.577 0 01-.323.209c-.107.057-.22.105-.347.142a2.279 2.279 0 01-.409.084 4.379 4.379 0 01-.502.027c-.299 0-.583-.045-.842-.136a1.969 1.969 0 01-.674-.39 1.887 1.887 0 01-.454-.632 2.111 2.111 0 01-.165-.855c0-.314.053-.599.16-.848a1.802 1.802 0 011.127-1.028c.263-.09.557-.136.875-.136.266 0 .491.023.668.068a2.564 2.564 0 01.748.31c.166.102.294.094.373.049a.24.24 0 00.083-.072l.313-.358-.037-.027a3.202 3.202 0 00-.927-.494 3.735 3.735 0 00-1.217-.184c-.466 0-.897.068-1.281.2-.386.132-.723.32-1 .559-.276.24-.494.53-.646.861a2.616 2.616 0 00-.229 1.1c0 .397.073.766.22 1.098.147.334.357.623.623.86.266.239.592.426.969.558.376.132.8.2 1.26.2.531 0 .991-.072 1.366-.213.376-.14.699-.34.963-.591l.033-.033-.374-.333c-.093-.083-.237-.081-.354.005zM128.765 46.662c-.083.079-.17.149-.258.209a1.35 1.35 0 01-.278.142 1.547 1.547 0 01-.327.084 2.814 2.814 0 01-.401.027c-.24 0-.467-.045-.674-.136a1.536 1.536 0 01-.54-.39 1.922 1.922 0 01-.363-.632 2.577 2.577 0 01-.132-.855c0-.314.043-.599.128-.848.084-.248.204-.46.356-.633.153-.172.336-.306.545-.395a1.77 1.77 0 01.701-.136c.213 0 .392.023.534.068.147.047.269.099.363.155.097.057.176.11.236.155.132.102.235.094.298.049a.212.212 0 00.066-.072l.251-.358-.03-.027a2.436 2.436 0 00-.742-.494 2.438 2.438 0 00-.973-.184c-.373 0-.717.068-1.025.2a2.33 2.33 0 00-.8.559c-.221.24-.395.53-.517.861a3.182 3.182 0 00-.183 1.1c0 .398.059.768.176 1.098.118.334.285.623.498.86.213.239.474.426.775.558.301.132.641.2 1.009.2.426 0 .793-.072 1.093-.213.3-.14.559-.34.77-.591l.027-.033-.3-.333c-.074-.083-.189-.081-.283.005z" fill="#231815"/><mask id="b" maskUnits="userSpaceOnUse" x="0" y="0" width="170" height="49"><path d="M0 48.913h169.565V0H0v48.913z" fill="#fff"/></mask><g mask="url(#b)" fill-rule="evenodd" clip-rule="evenodd" fill="#231815"><path d="M132.609 47.826h1.087v-5.435h-1.087v5.435zM139.674 43.307l.034.107c.03.086.058.162.084.228l.859 2.106h-1.959l.859-2.101c.042-.097.082-.211.123-.34zm.42-.916h-.84l-2.27 5.369-.027.066h.664a.313.313 0 00.198-.063.31.31 0 00.106-.14l.515-1.258h2.463l.515 1.259a.316.316 0 00.308.202h.665l-2.284-5.404-.013-.03zM146.286 45.423l1.478-.678c.1-.034.153-.107.153-.209v-.565l-1.631.73v-2.31h-.928v2.688l-.659.305c-.088.036-.134.101-.134.189v.577l.793-.354v2.03h3.555v-.704h-2.627v-1.699zM153.805 43.307l.034.107c.029.086.057.162.084.228l.859 2.106h-1.959l.86-2.101c.042-.1.083-.213.122-.34zm.432-.885l-.012-.03h-.841l-2.269 5.367-.028.067h.666a.317.317 0 00.303-.202l.516-1.259h2.462l.516 1.26a.313.313 0 00.307.202h.665l-2.285-5.405zM122.827 12.982c-6.028 0-10.933 4.903-10.933 10.931s4.905 10.932 10.933 10.932c6.027 0 10.93-4.904 10.93-10.932 0-6.028-4.903-10.931-10.93-10.931zm0 22.888c-6.593 0-11.957-5.364-11.957-11.957 0-6.593 5.364-11.957 11.957-11.957 6.593 0 11.956 5.364 11.956 11.957 0 6.593-5.363 11.957-11.956 11.957zM54.29 13.008h7.103c2.144 0 3.887 2.154 3.887 4.802 0 2.546-1.614 4.63-3.645 4.785h-7.346v-9.587zm0 21.611V23.626l7.669.003 4.34 12.24h1.092l-4.39-12.36 1.08-.835c1.34-1.04 2.228-2.83 2.228-4.864 0-3.209-2.17-5.853-4.88-5.853h-8.132l-.036 10.638V35.87h1.028v-1.25zM72.826 35.87h1.087V11.957h-1.087V35.87z"/><path d="M72.826 13.043h10.87v-1.086h-10.87v1.086zM73.913 23.913h7.609v-1.087h-7.609v1.087zM72.826 35.87h10.87v-1.087h-10.87v1.087zM90.122 35.87V13.06l16.092 22.81h1.395V11.957h-.991l.002 22.736-16.034-22.736H89.13V35.87h.992zM168.478 11.959l-13.043-.002v.964h6.123V35.87h.957V12.92l5.963.002v-.964zM140.136 12.974h6.949c2.097 0 3.802 2.156 3.802 4.807 0 2.55-1.58 4.636-3.566 4.792h-7.185v-9.6zm0 21.638V23.605l7.614-.015 4.458 12.28h1.053l-4.507-12.457.96-.761c1.31-1.042 2.179-2.834 2.179-4.87 0-3.213-2.157-5.825-4.808-5.825h-7.955V35.87h1.006v-1.258zM26.875 46.612c-.014-.314-.025-.629-.025-.947 0-2.13.311-4.185.883-6.126C34.47 38 39.708 32.494 40.808 25.605a20.034 20.034 0 015.988-1.132c-.275 11.368-8.872 20.705-19.92 22.14zm-4.9.11c.017-.349.029-.7.029-1.053 0-2.046-.277-4.027-.784-5.91a17.188 17.188 0 005.392 0 22.684 22.684 0 00-.782 5.906c0 .355.01.707.028 1.057-.642.054-1.29.088-1.945.088-.653 0-1.298-.034-1.937-.088zM1.03 24.477c2.092.071 4.105.464 5.996 1.132C8.139 32.488 13.37 38 20.1 39.539c.572 1.942.883 3.999.883 6.13 0 .317-.012.63-.025.944C9.907 45.182 1.307 35.845 1.03 24.477zM23.913 1.016c10.708 0 19.72 7.389 22.21 17.335a21.942 21.942 0 00-5.644.27 17.41 17.41 0 00-3.453-6.73 13.424 13.424 0 00-8.9 2.796A20.336 20.336 0 0024.21 7.75c-.086-.1-.17-.204-.257-.303l-.04-.05-.039.05c-.089.099-.171.202-.258.303 0 0-.04.043-.038.045a20.337 20.337 0 00-3.878 6.892 13.423 13.423 0 00-8.9-2.797l-.04.047a17.132 17.132 0 00-3.413 6.685 21.94 21.94 0 00-5.645-.27C4.194 8.404 13.206 1.015 23.913 1.015zm17.11 21.868c0-1.283-.156-2.54-.434-3.765a21.38 21.38 0 015.656-.248c.333 1.479.523 3.01.554 4.582a21.059 21.059 0 00-5.851 1.022c.047-.512.075-1.029.076-1.553l-.001-.038zm-12.73-7.686a12.925 12.925 0 018.053-2.814c.138 0 .275.006.413.01 1.538 1.91 2.625 4.047 3.218 6.32a22.382 22.382 0 00-10.494 5.301c-.113.102-.218.208-.328.311.294-3.212-.003-6.297-.862-9.128zm-.066 20.324a12.95 12.95 0 01-4.04-5.539 13.556 13.556 0 000-9.174 13.075 13.075 0 013.68-5.257c.84 2.872 1.098 6.007.732 9.27l.03.004-.013.012.362.36a21.884 21.884 0 0111.11-5.987c.272 1.196.425 2.422.425 3.674v.035a16.896 16.896 0 01-.094 1.74c-5.292 1.882-9.656 5.81-12.192 10.862zm12.026-9.715c-1.146 6.46-6.037 11.623-12.348 13.18 1.967-6.073 6.537-10.935 12.348-13.18zM19.838 35.988a13.482 13.482 0 004.075-5.307 13.47 13.47 0 004.08 5.31 22.347 22.347 0 00-1.233 3.235c-.926.16-1.878.248-2.85.248-.967 0-1.914-.087-2.837-.244a22.388 22.388 0 00-1.235-3.242zm.09 3.005c-6.333-1.548-11.238-6.708-12.367-13.19 5.821 2.242 10.4 7.109 12.368 13.19zm4.55-13.613c0 1.311-.196 2.589-.565 3.803a13.053 13.053 0 01-.564-3.803c0-1.311.2-2.576.564-3.77.364 1.194.564 2.459.564 3.77zM20.128 15.02a19.848 19.848 0 013.784-6.83 19.846 19.846 0 013.784 6.83 13.582 13.582 0 00-3.784 5.094 13.584 13.584 0 00-3.784-5.095zm-1.458 9.307c-.11-.103-.215-.209-.328-.31A22.388 22.388 0 007.85 18.713c.593-2.273 1.679-4.41 3.217-6.32.138-.004.275-.01.414-.01 3.041 0 5.836 1.058 8.053 2.814-.859 2.831-1.157 5.916-.863 9.128zM7.311 22.97l.002-.085c0-1.252.154-2.478.426-3.674a21.882 21.882 0 0111.11 5.987l.36-.36c-.002-.004-.007-.008-.011-.012l.03-.003c-.367-3.264-.109-6.4.731-9.271a13.08 13.08 0 013.68 5.258 13.542 13.542 0 000 9.174 12.953 12.953 0 01-4.036 5.534c-2.54-5.052-6.908-8.98-12.205-10.86a16.655 16.655 0 01-.087-1.688zm-5.729-4.099c1.9-.168 3.8-.085 5.655.248a17.043 17.043 0 00-.433 3.746h-.002c0 .544.029 1.081.079 1.613a21.099 21.099 0 00-5.854-1.023c.031-1.571.22-3.104.555-4.584zM23.913 0C10.727 0 0 10.728 0 23.912 0 37.1 10.727 47.826 23.913 47.826S47.826 37.1 47.826 23.912C47.826 10.728 37.1 0 23.913 0z"/></g></svg>