<svg width="308" height="50" fill="none" xmlns="http://www.w3.org/2000/svg"><path d="M54.582.15h6.794v33.335h-6.794V.15zm72.142.01l-19.043 20.945L87.59.16h-2.44v33.355h1.606V7.463l17.944 19.74 17.946-19.74v26.052h6.408V.16h-2.33zm65.951 0l-19.047 20.945L153.542.16h-2.444v33.355h1.605V7.463l17.946 19.74 17.944-19.74v26.052h6.408V.16h-2.326zm22.79 0v33.355h37.034v-1.633h-30.227V16.541h18.109v-1.537h-18.109V1.47h28.382V.16h-35.189zm55.816 0v33.355h36.225v-1.633H277.99V.16h-6.709zM20.387 17.525c5.735 0 7.082-4.507 7.082-8.07 0-3.477-1.345-8.18-6.83-8.18H6.89v16.25h13.498zM0 0h20.725c8.936 0 13.32 3.482 13.32 9.336 0 4.724-3.212 8.577-8.762 9.448l11.378 14.738h-7.335L17.949 18.85H6.889v14.673H0V0zM298.347 39.345l-.075.075v10.277l.075.076h1.339l.075-.076V41.73l6.106 7.968.15.076h1.414l.075-.076V39.42l-.075-.075h-1.342l-.075.075v7.97l-6.105-7.97-.15-.075h-1.412zm-13.077 1.34a3.875 3.875 0 013.882 4.58 3.87 3.87 0 01-5.268 2.879 3.87 3.87 0 01-2.412-3.581 3.822 3.822 0 011.095-2.725 3.83 3.83 0 012.703-1.148v-.005zm0-1.56a5.436 5.436 0 00-3.749 9.308 5.434 5.434 0 008.345-.858 5.443 5.443 0 00.911-3.015 5.482 5.482 0 00-5.507-5.435zm-20.027 1.712h2.086c2.232 0 3.797 1.638 3.797 3.723 0 2.086-1.565 3.723-3.797 3.723h-2.086v-7.446zm-1.414-1.49l-.075.076V49.7l.075.075h3.505c3.201 0 5.507-2.308 5.507-5.212s-2.308-5.213-5.507-5.213l-3.505-.002zm-17.273 0l-.075.076V49.7l.075.075h1.342l.075-.075v-7.971l6.111 7.968.147.076h1.415l.075-.076V39.42l-.075-.075h-1.34l-.075.075v7.97l-6.105-7.97-.15-.075-1.42.003zm-13.077 1.34a3.87 3.87 0 013.882 4.58 3.87 3.87 0 01-5.269 2.879 3.873 3.873 0 01-2.41-3.583 3.822 3.822 0 011.095-2.725 3.826 3.826 0 012.702-1.148v-.003zm0-1.562a5.439 5.439 0 105.507 5.435 5.48 5.48 0 00-5.507-5.435zm-17.956.223l-.06.06v10.307l.06.06h6.286l.06-.06v-1.354l-.06-.075h-4.857v-8.88l-.06-.06-1.369.002z" fill="#231815"/></svg>