<svg width="199" height="50" fill="none" xmlns="http://www.w3.org/2000/svg"><path d="M76.7 17.044l-.378.614.378-.614c-.709-.448-1.558-.826-2.574-1.133a57.035 57.035 0 00-3.446-.85 93.638 93.638 0 01-3.164-.708c-.755-.189-1.298-.377-1.605-.52-.165-.07-.283-.164-.354-.212-.07-.047-.07-.094-.07-.07-.048-.095-.095-.284-.095-.567 0-.26.07-.425.189-.614.141-.189.354-.377.684-.543.33-.165.756-.307 1.251-.401a8.804 8.804 0 011.653-.142c1.37 0 2.337.236 2.95.543.048.024.284.118.284.118 2.904 1.44 3.14-3.328 3.14-3.328-1.605-.921-3.824-1.322-6.68-1.346-1.276 0-2.432.142-3.495.425-1.038.283-1.96.685-2.738 1.204-.78.52-1.393 1.157-1.818 1.889a4.733 4.733 0 00-.66 2.455c0 .92.14 1.747.518 2.431a4.245 4.245 0 001.558 1.676c.661.425 1.488.78 2.456 1.063.944.26 2.053.543 3.352.802 1.298.284 2.337.543 3.14.732.779.189 1.392.378 1.77.567.378.165.567.33.59.425.071.118.142.33.142.684 0 .307-.07.543-.212.78a2.09 2.09 0 01-.685.684c-.33.212-.756.377-1.299.52-.542.14-1.18.188-1.935.188-1.7 0-2.927-.283-3.636-.732-.496-.307.047 0-1.18-.732-1.228-.731-3.281 3.022-3.281 3.022.306.307.66.59 1.038.826 1.724 1.086 4.084 1.582 7.082 1.582 1.37 0 2.62-.142 3.778-.472 1.133-.307 2.1-.755 2.927-1.322a6.406 6.406 0 001.936-2.054c.472-.803.708-1.7.708-2.644 0-.968-.165-1.818-.543-2.526-.378-.637-.945-1.227-1.676-1.7zM88.669 23.63c-.284.024-.614.048-.921.048a2.98 2.98 0 01-.708-.07c-.118-.024-.19-.072-.284-.19-.07-.07-.189-.26-.26-.566-.07-.284-.117-.756-.117-1.346V11.71h3.517V7.743H86.38V3.211s-1.7.306-3.282 1.676c-1.581 1.369-1.983 2.856-1.983 2.856H78.47v3.966h2.644v9.632c0 .944.047 1.794.165 2.55.119.802.378 1.487.827 2.077.448.59 1.086 1.039 1.865 1.298.779.284 1.747.402 2.95.402.52 0 1.016-.024 1.488-.071.496-.047.944-.118 1.416-.213l.567-.118v-3.848l-.803.095c-.33.047-.614.094-.92.118zM109.655 8.805c-.85-.59-1.865-.967-3.021-1.18-1.134-.212-2.385-.307-3.778-.307-3.045 0-5.43.472-7.176 1.511-.024 0-.024.024-.047.024 0 0 .684 4.768 3.281 3.281l.212-.142c.709-.425 1.866-.684 3.494-.684 1.228 0 2.172.118 2.762.283.614.189.992.449 1.181.708.236.284.378.661.425 1.157.047.401.071.826.071 1.299h-1.157c-4.391 0-7.72.519-10.057 1.676-2.337 1.11-3.683 3.045-3.659 5.43 0 .896.212 1.746.661 2.502a5.852 5.852 0 001.77 1.888c.732.52 1.582.897 2.526 1.18.968.284 1.983.402 3.069.402h.024c2.597 0 4.887-.543 6.823-1.676v1.227h5.24V14.92c0-1.44-.212-2.667-.661-3.706-.448-.991-1.109-1.817-1.983-2.408zm-2.573 12.82c-.26.282-.566.566-.921.802-.424.307-.92.566-1.416.755a7.418 7.418 0 01-1.652.472 8.601 8.601 0 01-1.747.166c-1.275 0-2.243-.236-2.904-.638-.637-.425-.873-.802-.897-1.51.023-.992.448-1.63 1.652-2.22 1.204-.566 3.211-.897 5.902-.897H107.082v3.07zM117.446 3.329c-1.535 2.077-1.464 4.273-1.464 4.273v19.782H121.223V.803s-2.03.165-3.777 2.526zM138.952 8.546a9.752 9.752 0 00-1.771-.756c-1.062-.33-2.219-.495-3.446-.495-1.37 0-2.668.236-3.848.708a8.755 8.755 0 00-3.116 2.1c-.898.922-1.582 2.008-2.078 3.306-.496 1.298-.755 2.738-.755 4.296 0 1.488.189 2.833.613 4.084a8.636 8.636 0 001.865 3.235 8.334 8.334 0 003.046 2.077c1.204.496 2.573.732 4.084.732 1.983 0 3.824-.59 5.406-1.747-.047.85-.142 1.534-.331 2.077-.212.709-.519 1.204-.897 1.582-.377.378-.85.637-1.463.803a9.01 9.01 0 01-2.243.26c-1.487 0-2.526-.26-3.116-.638-.142-.094-.024 0-.59-.33-1.44-.827-3.069 3.28-3.069 3.28a.414.414 0 01.118.095c.85.52 1.841.921 2.974 1.18 1.133.26 2.408.402 3.801.402 3.211 0 5.76-.755 7.507-2.384 1.747-1.63 2.573-4.084 2.573-7.13V7.743h-5.241v.803h-.023zm0 12.606c-.779.897-1.582 1.558-2.408 2.007a5.591 5.591 0 01-2.715.684c-1.464-.023-2.479-.472-3.281-1.463-.779-.968-1.228-2.503-1.228-4.651 0-2.29.472-3.919 1.299-4.91.849-1.015 1.888-1.511 3.352-1.511 1.817 0 3.446.59 4.957 1.818v8.026h.024zM163.48 8.805c-.85-.59-1.865-.967-3.022-1.18-1.133-.212-2.384-.307-3.777-.307-3.045 0-5.43.472-7.177 1.511-.023 0-.023.024-.047.024 0 0 .685 4.768 3.281 3.281l.213-.142c.708-.425 1.865-.684 3.494-.684 1.227 0 2.172.118 2.762.283.614.189.991.449 1.18.708.236.284.378.661.425 1.157.047.401.071.826.071 1.299h-1.157c-4.391 0-7.719.519-10.057 1.676-2.337 1.11-3.659 3.045-3.635 5.43 0 .896.212 1.746.661 2.502.425.731 1.039 1.369 1.771 1.888.731.52 1.581.897 2.526 1.18.967.284 1.983.402 3.068.402h.024c2.597 0 4.887-.543 6.823-1.676v1.227h5.24V14.92c0-1.44-.212-2.667-.661-3.706a5.72 5.72 0 00-2.006-2.408zm-2.573 12.82c-.26.282-.567.566-.921.802a6.271 6.271 0 01-1.417.755 7.418 7.418 0 01-1.652.472 8.76 8.76 0 01-1.747.166c-1.275 0-2.243-.236-2.904-.638-.637-.425-.873-.802-.897-1.51.024-.992.449-1.63 1.653-2.22 1.204-.566 3.21-.897 5.902-.897H160.907v3.07zM184.844 16.926l-.377.614.377-.614c-.708-.448-1.581-.826-2.573-1.11a56.768 56.768 0 00-3.447-.85 93.382 93.382 0 01-3.163-.707c-.755-.19-1.298-.378-1.605-.52-.166-.07-.284-.165-.354-.212-.071-.047-.071-.095-.071-.095-.047-.094-.095-.283-.095-.566 0-.26.071-.425.189-.614.142-.189.354-.378.685-.543.33-.165.755-.307 1.251-.401a8.81 8.81 0 011.653-.142c1.369 0 2.337.236 2.95.543.048.024.284.118.284.118 2.903 1.44 3.139-3.328 3.139-3.328-1.605-.921-3.824-1.322-6.68-1.346-1.275 0-2.432.142-3.494.425-1.039.283-1.96.684-2.739 1.204-.779.52-1.392 1.157-1.817 1.888a4.729 4.729 0 00-.661 2.456c0 .92.141 1.747.495 2.431a4.474 4.474 0 001.558 1.7c.661.425 1.488.779 2.456 1.062.944.283 2.053.543 3.352.803 1.298.283 2.337.543 3.14.732.779.189 1.392.377 1.77.566.378.165.567.33.59.401.071.118.142.331.142.685 0 .307-.071.543-.213.78a2.088 2.088 0 01-.684.684c-.331.212-.756.378-1.299.52a9.093 9.093 0 01-1.935.188c-1.7 0-2.928-.283-3.636-.708-.496-.307.047 0-1.18-.732-1.228-.732-3.282 3.022-3.282 3.022.307.307.661.59 1.039.826 1.723 1.086 4.084 1.582 7.082 1.582 1.369 0 2.621-.142 3.777-.473 1.134-.306 2.101-.755 2.928-1.322a6.401 6.401 0 001.935-2.053c.473-.803.709-1.7.709-2.644 0-.968-.166-1.818-.543-2.526a4.807 4.807 0 00-1.653-1.724zM196.789 23.49c-.283.023-.613.046-.92.046a2.97 2.97 0 01-.708-.07c-.119-.024-.189-.071-.284-.19-.071-.07-.189-.259-.259-.566-.071-.283-.118-.755-.118-1.346v-9.773h3.517V7.625H194.5V3.093s-1.7.306-3.282 1.652c-1.582 1.37-1.983 2.88-1.983 2.88h-2.644v3.966h2.644v9.632c0 .944.047 1.794.165 2.55.118.779.378 1.487.827 2.077.448.59 1.086 1.039 1.865 1.298.779.284 1.77.402 2.95.402.52 0 1.016-.024 1.488-.071.495-.047.944-.118 1.416-.213l.567-.118V23.3l-.803.095c-.33.047-.614.07-.921.094zM83.947 42.257c-.33-.354-.897-.52-1.676-.52-.52 0-.944.071-1.251.237-.236.118-.449.33-.614.637l-.024-.024.048-.779h-1.134v8.074h1.157v-3.187h.024c.165.307.378.52.637.637.284.118.685.19 1.204.19.425 0 .78-.048 1.063-.142.448-.166.755-.496.944-1.016.141-.377.189-.967.189-1.77 0-.449-.024-.85-.071-1.228-.095-.472-.26-.85-.496-1.11zm-.944 4.06c-.165.213-.52.307-1.086.307-.567 0-.944-.094-1.11-.307-.236-.26-.354-.826-.354-1.7 0-.944.118-1.534.378-1.746.189-.166.543-.26 1.062-.26.496 0 .85.07 1.039.236.26.212.401.803.401 1.818 0 .85-.118 1.416-.33 1.652zM71.553 41.808h-1.345l-1.794 2.243h-.355v-4.65h-1.133v8.073h1.133v-2.62h.331l2.148 2.62h1.44l-2.644-3.022 2.22-2.644zM180.807 42.682h2.975l-3.258 3.8v.992h4.604v-.873h-3.258l3.258-3.801v-.992h-4.321v.874zM172.427 39.4h-1.133v1.063h1.133V39.4zM196.908 41.808l-.614 2.455-.307 1.228-.142.614-.141.614h-.024l-.189-.614-.189-.614-.401-1.228-.803-2.455h-1.204l1.983 5.666h.52c-.118.567-.26.992-.425 1.298-.142.236-.402.355-.779.355-.048 0-.142 0-.26-.024v.85c.142.023.307.023.449.023.755 0 1.274-.236 1.581-.684.213-.307.402-.803.567-1.488l1.558-5.996h-1.18zM189.613 41.737c-.968 0-1.582.307-1.841.945h-.024l.047-.874h-1.133v5.666h1.157v-3.376c0-.377.071-.684.189-.873.236-.378.684-.567 1.369-.567.566 0 .92.142 1.062.401.071.166.118.449.118.921v3.494h1.133v-3.777c0-.59-.071-1.015-.189-1.228-.306-.472-.92-.732-1.888-.732zM172.427 41.808h-1.133v5.666h1.133v-5.666zM143.909 41.88c-.307-.095-.779-.143-1.463-.143-.732 0-1.275.071-1.582.19-.401.165-.685.471-.85.92-.118.33-.189.897-.189 1.7 0 .543.024.991.071 1.393.047.306.118.566.26.802.141.26.378.472.708.59.331.142.873.213 1.605.213.543 0 .968-.024 1.228-.095.33-.07.59-.188.779-.354.189-.165.33-.401.448-.708.118-.378.189-.991.189-1.889 0-.66-.047-1.18-.141-1.51-.142-.567-.496-.945-1.063-1.11zm0 3.73c-.023.377-.118.636-.283.778-.165.165-.543.26-1.133.26-.425 0-.732-.047-.944-.118-.213-.071-.378-.26-.449-.567-.071-.236-.094-.708-.094-1.393 0-.826.07-1.369.236-1.605.141-.236.566-.33 1.227-.33.661 0 1.063.094 1.228.306.165.236.26.78.26 1.653 0 .354-.024.708-.048 1.015zM157.578 41.88c-.307-.095-.779-.143-1.464-.143-.732 0-1.275.071-1.581.19-.402.165-.685.471-.85.92-.118.33-.189.897-.189 1.7 0 .543.023.991.071 1.393.023.306.118.566.259.802.142.26.378.472.709.59.33.142.873.213 1.605.213.543 0 .968-.024 1.227-.095.331-.07.591-.188.779-.354.189-.165.331-.401.449-.708.118-.378.189-.991.189-1.889 0-.66-.047-1.18-.142-1.51-.141-.567-.496-.945-1.062-1.11zm0 3.73c-.024.377-.118.636-.283.778-.166.165-.543.26-1.134.26-.424 0-.731-.047-.944-.118-.212-.071-.378-.26-.448-.567-.071-.236-.095-.708-.095-1.393 0-.826.071-1.369.236-1.605.142-.236.567-.33 1.228-.33s1.062.094 1.227.306c.166.236.26.78.26 1.653 0 .354-.023.708-.047 1.015zM167.21 41.737c-.567 0-1.015.118-1.37.331a1.556 1.556 0 00-.543.661h-.023c-.165-.661-.756-.992-1.747-.992-.543 0-.968.095-1.298.307a1.805 1.805 0 00-.52.638h-.023l.023-.874h-1.133v5.666h1.133v-3.258c0-.448.071-.802.189-1.015.212-.354.637-.543 1.298-.543.543 0 .874.118 1.016.378.047.07.07.142.07.212 0 .071.024.284.024.614v3.588h1.133V44.17c0-.448.047-.779.142-.968.189-.378.637-.566 1.369-.566.543 0 .873.118.991.377.095.166.118.449.118.827v3.611h1.134v-3.73c0-.613-.095-1.038-.26-1.322-.283-.424-.85-.66-1.723-.66zM149.646 41.737c-.968 0-1.582.307-1.841.945h-.024l.047-.874h-1.133v5.666h1.157v-3.376c0-.377.071-.684.189-.873.236-.378.684-.567 1.369-.567.566 0 .921.142 1.062.401.071.166.118.449.118.921v3.494h1.133v-3.777c0-.59-.07-1.015-.189-1.228-.33-.472-.944-.732-1.888-.732zM0 16.855v7.083h.142c13.22 0 23.937-10.718 23.937-23.938h-7.224C7.555 0 0 7.554 0 16.855zM0 33.074v-7.082h.142c13.22 0 23.937 10.717 23.937 23.937h-7.224C7.555 49.93 0 42.375 0 33.074zM50.212 16.855v7.083h-.141C36.85 23.938 26.133 13.22 26.133 0h7.224c9.301 0 16.855 7.554 16.855 16.855zM50.212 33.074v-7.082h-.141c-13.22 0-23.938 10.717-23.938 23.937h7.224c9.301 0 16.855-7.554 16.855-16.855zM64.14 46.034c-.023.142-.046.26-.094.33-.141.19-.566.284-1.275.284-.613 0-1.015-.095-1.18-.284-.118-.117-.212-.33-.236-.637a8.331 8.331 0 01-.047-.92h4.013c0-.496 0-.85-.024-1.04-.047-.92-.33-1.51-.826-1.77-.354-.189-.897-.283-1.652-.283-.709 0-1.252.07-1.582.212a1.62 1.62 0 00-.873.85c-.166.378-.236.968-.236 1.818 0 .873.07 1.51.236 1.889.165.425.472.708.944.873.33.118.85.165 1.534.165.354 0 .709-.023 1.039-.047.401-.047.732-.165.968-.378.283-.212.448-.59.448-1.086h-1.156v.024zm-2.809-2.479c.048-.448.213-.732.496-.85.189-.07.496-.118.945-.118.33 0 .59.024.755.071.283.071.448.213.543.425.07.142.094.496.118 1.015h-2.88c0-.236 0-.425.023-.543zM90.25 46.034c-.023.142-.047.26-.094.33-.142.19-.567.284-1.275.284-.614 0-1.015-.095-1.18-.284-.118-.117-.213-.33-.236-.637a8.331 8.331 0 01-.048-.92h4.014c0-.496 0-.85-.024-1.04-.047-.92-.33-1.51-.826-1.77-.354-.189-.897-.283-1.653-.283-.708 0-1.25.07-1.581.212a1.62 1.62 0 00-.874.85c-.165.378-.236.968-.236 1.818 0 .873.07 1.51.236 1.889.165.425.472.708.944.873.33.118.85.165 1.535.165.354 0 .708-.023 1.039-.047.4-.047.731-.165.968-.378.283-.212.448-.59.472-1.086h-1.18v.024zm-2.833-2.479c.048-.448.213-.732.496-.85.189-.07.496-.118.944-.118.33 0 .59.024.756.071.283.071.448.213.543.425.07.142.094.496.118 1.015h-2.88c0-.236.023-.425.023-.543zM76.605 44.24c-.165-.024-.614-.071-1.298-.095-.685-.023-1.062-.07-1.18-.094-.236-.07-.355-.307-.355-.708 0-.19.024-.33.071-.425.071-.165.213-.26.472-.307.142-.024.402-.047.803-.047.378 0 .637 0 .78.047.188.024.33.094.4.212.048.071.071.166.095.307h1.133c0-.118-.024-.212-.024-.283-.07-.425-.33-.732-.755-.897-.307-.118-.85-.189-1.582-.189-.401 0-.755.024-1.11.047-.377.047-.684.142-.92.307-.307.213-.472.638-.472 1.299 0 .4.047.708.165.92.142.307.401.496.78.59.4.118 1.109.166 2.147.19.33 0 .567.07.661.165.118.118.166.33.166.613 0 .284-.047.472-.166.614-.141.189-.59.283-1.298.283-.637 0-1.015-.07-1.157-.188-.118-.118-.165-.284-.189-.496h-1.18c0 .26.047.496.118.66.142.355.472.591.968.733.283.07.755.118 1.37.118.471 0 .896-.024 1.25-.071.355-.047.638-.165.874-.354.33-.284.496-.709.496-1.322 0-.378-.071-.685-.19-.944-.117-.402-.448-.59-.873-.685zM137.96 43.414h1.086c0-.213-.023-.425-.047-.59a1.412 1.412 0 00-.33-.709c-.26-.26-.661-.401-1.181-.401-.425 0-.779.07-1.062.236-.189.118-.378.307-.543.614l-.024-.024.095-.732h-1.133v5.666h1.133v-3.352c0-.449.047-.78.118-.968.165-.354.519-.543 1.062-.543.354 0 .59.094.708.26.071.094.118.283.118.543zM120.231 42.823c-.094-.377-.33-.637-.731-.826-.331-.165-.898-.236-1.653-.236-.637 0-1.109.047-1.416.118-.354.095-.614.26-.756.472-.094.142-.165.378-.189.661h1.157a.534.534 0 01.331-.377c.188-.071.495-.095.897-.095.307 0 .543.024.708.047.236.048.401.166.472.33.094.213.165.52.165.945v.803h-.023a.79.79 0 00-.402-.425c-.307-.118-.779-.189-1.416-.189-.779 0-1.322.118-1.653.378-.33.236-.495.708-.495 1.416 0 .33.047.614.141.85.142.354.425.614.85.755.26.095.638.118 1.157.118.33 0 .614-.023.873-.047.189-.023.378-.094.567-.212.189-.095.33-.283.472-.52l.024.024-.071.685h1.133V43.79c-.024-.401-.071-.731-.142-.968zm-1.227 3.589c-.213.189-.661.283-1.299.283-.59 0-.944-.07-1.109-.236-.142-.142-.213-.378-.213-.78 0-.33.071-.542.213-.66.189-.142.59-.213 1.204-.213s1.015.095 1.227.26c.142.118.213.354.213.708 0 .307-.071.543-.236.638zM96.152 43.414h1.086c0-.236-.024-.425-.047-.59-.047-.284-.142-.52-.33-.709-.26-.26-.638-.401-1.181-.401-.425 0-.78.07-1.062.236-.19.118-.378.307-.543.614l-.024-.024.094-.732h-1.133v5.666h1.133v-3.352c0-.449.048-.78.118-.968.166-.354.52-.543 1.063-.543.354 0 .59.094.708.26.07.094.118.283.118.543zM178.187 45.68c-.024.378-.094.614-.213.732-.165.165-.519.236-1.062.236-.708 0-1.133-.095-1.275-.307-.188-.26-.283-.826-.283-1.676 0-.944.095-1.535.283-1.724.189-.188.567-.283 1.134-.283.354 0 .613.024.779.071.212.047.354.142.448.307.047.094.071.212.095.354h1.133c0-.07 0-.165-.024-.212-.071-.567-.307-.945-.708-1.134-.378-.188-.944-.283-1.7-.283-.708 0-1.251.094-1.582.26a1.554 1.554 0 00-.802.92c-.142.355-.189.921-.189 1.7 0 .92.094 1.558.26 1.936.188.401.519.685.968.85.306.118.779.165 1.416.165.567 0 1.015-.047 1.298-.094.402-.095.685-.284.897-.567.166-.236.26-.637.284-1.204h-1.157v-.047zM101.44 45.633c0 .448-.047.731-.142.85-.094.118-.306.188-.613.188-.284 0-.473-.047-.543-.165-.095-.118-.142-.354-.142-.684v-3.14h2.219v-.874H100v-1.322h-1.133v1.322h-.78v.874h.78v3.234c0 .236 0 .401.023.496.048.401.213.684.496.873.26.165.661.236 1.228.236a3.3 3.3 0 00.873-.094c.26-.071.472-.213.638-.425.212-.26.307-.685.307-1.251v-.142h-.992v.024zM112.323 41.808l.047.85h-.023c-.142-.283-.284-.496-.496-.614-.307-.212-.756-.306-1.322-.306-.425 0-.779.047-1.063.141a1.595 1.595 0 00-1.015.968c-.141.33-.188.944-.188 1.818 0 .495.023.92.07 1.298.048.401.213.732.449.992.354.377.944.566 1.747.566.519 0 .92-.07 1.251-.236.236-.118.401-.33.519-.59h.024v1.204c0 .354-.047.614-.142.779-.165.283-.59.449-1.274.449-.661 0-1.063-.095-1.181-.307-.023-.048-.047-.118-.071-.19h-1.133v.095c.071.52.331.874.779 1.063.331.141.85.212 1.535.212.59 0 1.062-.047 1.416-.142.425-.118.732-.354.921-.66.189-.307.307-.803.307-1.488v-5.878h-1.157v-.024zm-.071 3.707a1.57 1.57 0 01-.236.731c-.189.26-.59.378-1.157.378-.472 0-.826-.07-1.015-.212a.847.847 0 01-.283-.472c-.071-.236-.095-.709-.095-1.37 0-.283 0-.566.024-.826.024-.354.118-.59.26-.755.189-.213.566-.307 1.133-.307.33 0 .59.023.779.094.283.095.496.33.59.661.071.213.095.59.095 1.11-.071.354-.071.684-.095.968zM131.752 45.703c0 .378-.048.638-.142.756-.094.118-.307.189-.614.189-.283 0-.472-.047-.543-.166-.094-.117-.141-.354-.141-.684v-3.14h2.219v-.873h-2.243v-1.322h-1.133v1.322h-.779v.873h.779v3.258c0 .236 0 .401.023.496.048.401.213.684.496.873.26.165.661.236 1.228.236.33 0 .614-.023.873-.094.26-.071.472-.213.638-.425.212-.26.307-.685.307-1.251v-.047h-.968zM126.983 42.8c-.071-.425-.33-.732-.755-.897-.307-.118-.85-.19-1.582-.19-.401 0-.755.024-1.11.048-.377.047-.684.142-.92.307-.307.213-.472.637-.472 1.298 0 .402.047.709.165.921.141.307.401.496.779.59.401.118 1.109.165 2.148.19.331 0 .567.07.661.164.118.118.165.33.165.614 0 .283-.047.472-.165.614-.142.189-.59.283-1.298.283-.638 0-1.015-.07-1.157-.189-.118-.118-.165-.283-.189-.519h-1.18c0 .26.047.496.118.661.165.354.472.59.968.732.283.07.755.118 1.369.118.472 0 .897-.024 1.251-.071.354-.047.637-.165.874-.354.33-.283.495-.708.495-1.322 0-.378-.071-.685-.189-.944-.165-.33-.472-.543-.92-.614-.165-.024-.614-.071-1.299-.095-.684-.023-1.062-.07-1.18-.094-.236-.07-.354-.307-.354-.708 0-.19.023-.33.071-.425.071-.165.212-.26.472-.307.142-.024.401-.047.803-.047.377 0 .637 0 .779.047.188.024.33.094.401.212.023.048.071.118.071.213h1.156c.048-.118.024-.189.024-.236z" fill="#231815"/><path d="M0 16.855v7.083h.142c13.22 0 23.937-10.718 23.937-23.938h-7.224C7.555 0 0 7.554 0 16.855z" fill="#231815"/></svg>