<svg width="272" height="50" fill="none" xmlns="http://www.w3.org/2000/svg"><path d="M59.559 49.84a1.923 1.923 0 01-1.922-1.923v-20.49c0-1.496.13-1.867 1.246-3.414C61.994 19.7 75.72.793 75.72.793a1.922 1.922 0 013.11 2.254S64.742 22.472 61.99 26.276c-.447.62-.51 1.213-.51 1.873v19.768a1.921 1.921 0 01-1.921 1.923zm93.944 0a1.922 1.922 0 01-1.923-1.923v-20.49c0-1.496.129-1.867 1.248-3.414C155.937 19.7 169.663.793 169.663.793a1.922 1.922 0 013.112 2.254s-14.091 19.425-16.84 23.229c-.447.62-.51 1.213-.51 1.873v19.768a1.923 1.923 0 01-1.922 1.923zm98.521 0a1.923 1.923 0 01-1.922-1.923v-20.49c0-1.496.13-1.867 1.246-3.414C254.459 19.7 268.185.793 268.185.793a1.922 1.922 0 013.111 2.254s-14.09 19.425-16.841 23.229c-.447.62-.51 1.213-.51 1.873v19.768a1.92 1.92 0 01-1.921 1.923zm-29.15-2.812C219.248 49.21 213.305 50 208.803 50c-13.819 0-22.387-9.907-22.387-24.44 0-13.743 8.067-25.106 21.387-25.106 5.064 0 10.881 2.313 14.57 5.947.688.658.878 1.187.878 1.716 0 .86-.878 1.717-1.566 1.717-.499 0-1-.263-1.625-.857-3.064-2.975-8.004-4.958-12.194-4.958-11.257 0-18.074 10.11-18.074 21.738 0 12.221 7.193 20.678 18.888 20.678 3.812 0 8.817-.662 12.005-2.512V31.635h-10.131c-1.501 0-2.124-.726-2.124-1.783 0-1.122.623-1.784 2.124-1.784h12.32c.814 0 1.187.528 1.187 1.32v15.196c0 1.189-.13 1.782-1.187 2.444zM130.107 3.964l-30.86 42.134h28.575c1.842 0 2.653.76 2.653 1.868 0 1.178-.811 1.872-2.653 1.872H95.638c-1.03 0-2.135-.694-2.135-1.733 0-.484.297-1.11.737-1.662l30.564-42.2H96.818c-1.915 0-2.655-.694-2.655-1.872 0-1.11.74-1.871 2.655-1.871h32.037c.883 0 1.913.901 1.913 1.871 0 .416-.221 1.039-.661 1.593zM18.345 49.72C6.659 49.72 0 42.736 0 35.03c0-1.502.653-2.092 1.762-2.092 1.046 0 1.766.59 1.766 2.025 0 7.053 7.114 11.232 14.687 11.232 6.464 0 14.43-2.938 14.43-10.122 0-5.289-5.028-7.963-9.4-8.683l-7.705-1.176c-6.4-.978-13.518-5.157-13.518-12.274C2.022 4.998 9.272.49 18.02.49c10.773 0 16.583 8.097 16.583 11.95 0 1.63-.13 2.611-1.438 2.611-1.042 0-1.827-.655-2.021-2.025-.457-3.786-5.092-9.01-13.124-9.01-6.529 0-12.47 2.744-12.47 9.989 0 4.18 4.05 7.705 10.445 8.683l7.772 1.176c6.137.98 12.402 5.223 12.402 12.209 0 5.29-4.567 13.646-17.824 13.646" fill="#231815"/></svg>