<svg width="299" height="50" viewBox="0 0 299 50" fill="none" xmlns="http://www.w3.org/2000/svg">
<path fill-rule="evenodd" clip-rule="evenodd" d="M18.8376 19.1257C18.8405 18.8194 18.722 18.5244 18.5081 18.3051C18.2942 18.0858 18.0022 17.9601 17.696 17.9554H11.4419L12.4027 10.7564C12.4132 10.6907 12.4191 10.6243 12.4205 10.5578C12.4233 10.4046 12.3957 10.2524 12.3394 10.11C12.2831 9.9675 12.1991 9.83762 12.0923 9.72781C11.9854 9.61801 11.8579 9.53046 11.7171 9.47023C11.5763 9.41 11.4249 9.37828 11.2718 9.3769H4.98934C4.70985 9.38121 4.44152 9.48732 4.23463 9.67533C4.02774 9.86335 3.89648 10.1204 3.86546 10.3982L0.0967156 38.1127V38.1269C-0.0911897 39.7228 -0.00609925 41.0704 0.359075 42.1697C0.720704 43.301 1.2986 44.1911 2.13531 44.8827C2.94366 45.5742 3.96827 46.0884 5.1418 46.3969C6.31886 46.7161 7.65193 46.8757 9.09844 46.8757C10.0805 46.8757 11.1193 46.8119 12.1617 46.6984C12.9584 46.6123 13.7453 46.4521 14.5122 46.2196C14.7297 46.1543 14.9228 46.0257 15.0668 45.85C15.2108 45.6744 15.2991 45.4599 15.3206 45.2337L15.941 40.5384C15.9663 40.3541 15.9494 40.1664 15.8917 39.9894C15.834 39.8125 15.7369 39.651 15.6078 39.5171C15.3959 39.3078 15.1114 39.1884 14.8136 39.1837C14.7542 39.1842 14.695 39.1889 14.6363 39.1979C14.569 39.205 14.5158 39.2192 14.4484 39.2334C13.7039 39.3256 13.1154 39.3823 12.6474 39.3823C11.7256 39.3823 11.0165 39.2476 10.4989 38.9851C10.0121 38.7619 9.62375 38.3684 9.40689 37.8787C9.18968 37.343 9.0847 36.7685 9.09844 36.1906C9.09844 35.5381 9.14808 34.8076 9.25799 34.0274L9.26862 34.0203L10.4741 25.0836H17.0472C17.3244 25.0787 17.5906 24.9737 17.7965 24.788C18.0024 24.6022 18.1342 24.3482 18.1675 24.0728L18.8199 19.3279C18.827 19.2569 18.8447 19.2002 18.8447 19.1257H18.8376ZM41.6521 24.1863C41.7386 24.2028 41.8265 24.2111 41.9145 24.2112C42.1678 24.212 42.4152 24.1352 42.6236 23.9913C42.7624 23.8914 42.8791 23.764 42.9663 23.6169C43.0536 23.4699 43.1095 23.3063 43.1306 23.1366L43.9496 17.1185C43.973 16.9522 43.9625 16.7828 43.9186 16.6207C43.8748 16.4585 43.7984 16.307 43.6943 16.1752C43.5938 16.0468 43.4686 15.9398 43.3261 15.8607C43.1837 15.7815 43.0267 15.7317 42.8647 15.7142C42.7908 15.7021 42.7161 15.695 42.6413 15.6929C42.1002 15.646 41.5572 15.6235 41.014 15.6255C38.9683 15.6255 37.1779 16.1007 35.6853 17.0334C34.2033 17.9732 32.8348 19.3988 31.6045 21.2713H31.4769L31.9626 17.8384L31.9697 17.6256C31.9711 17.4635 31.9403 17.3027 31.879 17.1525C31.8177 17.0024 31.7272 16.8659 31.6127 16.7511C31.4983 16.6363 31.3621 16.5453 31.2122 16.4836C31.0623 16.4219 30.9016 16.3906 30.7395 16.3915H23.9394C23.6417 16.392 23.3541 16.4998 23.1294 16.6952C22.9048 16.8907 22.7581 17.1606 22.7163 17.4554L18.8518 45.4501C18.8266 45.6262 18.8389 45.8057 18.8878 45.9768C18.9367 46.1479 19.021 46.3068 19.1354 46.443C19.2521 46.5772 19.3958 46.6851 19.5571 46.7596C19.7184 46.8342 19.8937 46.8738 20.0714 46.8757H26.8785C27.1776 46.8732 27.4656 46.7627 27.6897 46.5646C27.9138 46.3665 28.0589 46.0942 28.0981 45.7976L29.6865 34.1302C29.8886 32.6372 30.1651 31.2435 30.5161 30.0023C30.8211 28.8425 31.3367 27.7486 32.0371 26.7751C32.7188 25.8431 33.6418 25.1148 34.7067 24.6686C35.8058 24.1615 37.2665 23.9062 39.0321 23.9062C39.727 23.9062 40.3971 23.9558 41.0175 24.0693C41.2295 24.1061 41.441 24.1452 41.6521 24.1863ZM60.2796 33.0876H62.6479L62.3962 35.0452C62.2858 35.9289 61.9568 36.7712 61.4389 37.4957C60.9274 38.1886 60.2825 38.7721 59.5421 39.2121C58.7621 39.6696 57.9237 40.0191 57.0497 40.2512C56.141 40.4954 55.204 40.6183 54.2631 40.6164C53.7317 40.6217 53.2018 40.561 52.6854 40.4356C52.1917 40.3313 51.7262 40.122 51.3204 39.8221C50.944 39.5617 50.6353 39.2152 50.4199 38.8114C50.1956 38.3718 50.1281 37.8689 50.2284 37.3857V37.3538C50.2729 36.8821 50.4193 36.4256 50.6574 36.016C50.8955 35.6064 51.2197 35.2534 51.6076 34.9813C52.3947 34.4139 53.3094 33.9813 54.3588 33.6976C55.4057 33.4163 56.4783 33.2416 57.5603 33.1763C58.6381 33.1124 59.5599 33.0876 60.2796 33.0876ZM70.6037 19.6116C69.6961 18.2923 68.4056 17.3207 66.6577 16.6327C64.9418 15.966 62.6408 15.6255 59.8258 15.6255C57.2492 15.6279 54.6885 16.0298 52.2351 16.8171C50.2115 17.4614 48.2949 18.4032 46.5483 19.6116C46.4105 19.7043 46.294 19.8253 46.2066 19.9666C46.1192 20.1078 46.0629 20.2661 46.0413 20.4308C46.015 20.5987 46.0268 20.7703 46.0759 20.933C46.125 21.0957 46.2101 21.2453 46.325 21.3706L49.0017 24.4559C49.1231 24.5963 49.2734 24.709 49.4422 24.7861C49.6111 24.8632 49.7946 24.903 49.9802 24.9027C50.2771 24.9008 50.5646 24.7983 50.7957 24.6119C51.697 23.903 52.6773 23.3008 53.7171 22.8175C55.1149 22.1897 56.6308 21.868 58.163 21.8741C59.8293 21.8741 61.2014 22.36 62.2685 23.3104C63.3499 24.2927 63.7753 25.5446 63.5449 27.2043C61.5595 27.2043 59.2904 27.2681 56.8618 27.3851C54.4155 27.5092 52.0401 27.9135 49.803 28.5767C47.6628 29.2053 45.6759 30.2702 43.9673 31.7045C42.308 33.1266 41.3224 35.0806 40.9253 37.6694V37.6801C40.7126 39.1766 40.8296 40.5278 41.2551 41.6697C41.6876 42.8187 42.3399 43.762 43.2759 44.5422C44.1835 45.3118 45.2968 45.8969 46.559 46.287C47.8424 46.6736 49.2251 46.8757 50.661 46.8757C52.6338 46.8756 54.5904 46.5188 56.4364 45.8224C58.3044 45.1384 59.948 43.9532 61.1872 42.3967H61.3077L60.978 44.755C60.9426 45.1096 61.0489 45.4607 61.29 45.7125C61.4114 45.845 61.5587 45.9511 61.7227 46.0243C61.8868 46.0975 62.0641 46.1362 62.2437 46.1381H68.5261C68.828 46.1424 69.1215 46.0386 69.3536 45.8454C69.5857 45.6523 69.7411 45.3825 69.7918 45.0848L71.8127 30.9917C72.1956 28.5199 72.3091 26.3106 72.1673 24.4168C72.0254 22.5267 71.4865 20.906 70.6037 19.6151V19.6116ZM105.767 19.7641C105.15 18.4519 104.182 17.4661 102.806 16.7178C101.449 15.9872 99.5802 15.6255 97.2437 15.6255C96.134 15.6255 95.074 15.778 94.0884 16.0582C93.1581 16.3303 92.2632 16.7112 91.4222 17.193C90.6693 17.6367 89.9678 18.1624 89.3305 18.7605C88.7136 19.3456 88.2172 19.9307 87.852 20.5159H87.7279L88.0789 17.8313C88.1038 17.7604 88.1038 17.7037 88.1038 17.6256C88.1038 17.2983 87.9738 16.9844 87.7424 16.753C87.511 16.5215 87.1972 16.3915 86.87 16.3915H80.4599C80.1601 16.3872 79.8692 16.4932 79.6424 16.6893C79.4156 16.8855 79.2687 17.1581 79.2297 17.4554L75.3794 45.4501C75.3521 45.6265 75.3637 45.8068 75.4133 45.9783C75.4629 46.1498 75.5493 46.3084 75.6665 46.443C75.7817 46.578 75.9247 46.6865 76.0856 46.7611C76.2465 46.8358 76.4216 46.8749 76.599 46.8757H83.3778C83.6774 46.874 83.9663 46.7639 84.1912 46.5658C84.416 46.3676 84.5615 46.0948 84.6009 45.7976L86.5509 31.701V31.6762C86.6659 30.7066 86.8507 29.7466 87.104 28.8036C87.3663 27.8816 87.7279 27.0518 88.2172 26.3141C88.7177 25.5831 89.3881 24.9844 90.1707 24.5693C90.9684 24.1296 91.9789 23.9062 93.1736 23.9062C94.3472 23.9062 95.2512 24.1615 95.822 24.6686C96.3929 25.1509 96.7935 25.8141 96.992 26.6085C97.2048 27.3993 97.2615 28.2717 97.1799 29.2115C97.0986 30.1203 96.9969 31.0272 96.875 31.9315L95.0279 45.4607C95.0063 45.6356 95.021 45.8131 95.071 45.9821C95.1211 46.1511 95.2053 46.308 95.3186 46.443C95.4317 46.5777 95.5727 46.6861 95.7319 46.7608C95.8911 46.8356 96.0646 46.8747 96.2404 46.8757H103.03C103.331 46.8757 103.621 46.7664 103.848 46.5681C104.074 46.3698 104.221 46.096 104.26 45.7976L106.394 30.0519C106.678 28.0164 106.806 26.0978 106.763 24.3495C106.721 22.6011 106.394 21.0585 105.77 19.7641H105.767ZM131.116 16.4802C129.331 15.9143 127.469 15.6261 125.596 15.6255C124.128 15.6255 122.654 15.817 121.186 16.2071C119.742 16.5752 118.372 17.1868 117.133 18.0157C115.903 18.8398 114.85 19.9007 114.035 21.1365C113.152 22.5008 112.596 24.0506 112.411 25.6651V25.6793C112.127 27.5412 112.283 29.0554 112.872 30.1761C113.46 31.3109 114.247 32.162 115.276 32.7791C116.3 33.3819 117.431 33.8536 118.651 34.155C119.877 34.4707 121.016 34.7473 122.086 35.0239C123.153 35.2863 124.022 35.6019 124.703 36.0027C125.369 36.3892 125.66 36.9744 125.532 37.7262V37.7475C125.426 38.5596 124.94 39.1199 124.096 39.4284C123.242 39.7299 122.299 39.8894 121.303 39.8894C119.991 39.8894 118.863 39.6164 117.959 39.0631C117.33 38.6748 116.766 38.1888 116.29 37.6233C116.188 37.505 116.062 37.4091 115.921 37.342C115.78 37.2748 115.627 37.2378 115.471 37.2332H115.439C115.287 37.2323 115.137 37.2616 114.997 37.3194C114.857 37.3773 114.73 37.4625 114.623 37.5701L110.262 41.9818C110.036 42.227 109.909 42.5485 109.908 42.8825C109.917 43.2177 110.057 43.5359 110.298 43.7691C111.385 44.8032 112.704 45.561 114.145 45.9785C116.048 46.5704 118.03 46.8729 120.023 46.8757C121.523 46.8757 123.086 46.7232 124.667 46.4111C126.209 46.123 127.694 45.5864 129.064 44.8224C130.405 44.0597 131.58 43.0345 132.517 41.808C133.481 40.5739 134.087 38.9709 134.318 37.0666C134.548 35.1977 134.382 33.694 133.825 32.5734C133.305 31.4835 132.489 30.5618 131.471 29.9136C130.446 29.2441 129.316 28.7525 128.128 28.4597L124.724 27.6085C123.824 27.3865 122.949 27.0753 122.111 26.6794C121.416 26.3425 121.129 25.8035 121.239 25.0765V25.0587C121.367 24.1473 121.785 23.5338 122.515 23.1544C123.253 22.7926 123.987 22.6082 124.728 22.6082C126.465 22.6082 127.791 23.1295 128.805 24.2253C128.912 24.3397 129.042 24.4308 129.186 24.4931C129.329 24.5553 129.485 24.5873 129.641 24.5871C129.923 24.5864 130.195 24.4815 130.404 24.2927L134.64 20.374C134.764 20.2587 134.862 20.1192 134.929 19.9642C134.996 19.8093 135.031 19.6421 135.03 19.4733C135.035 19.3034 135.005 19.1345 134.942 18.9767C134.879 18.8188 134.785 18.6753 134.665 18.5548C133.668 17.5871 132.451 16.8742 131.12 16.4766L131.116 16.4802ZM174.37 22.2465C176.086 22.2465 177.376 22.7855 178.298 23.9062C179.209 25.0091 179.543 26.307 179.291 27.8816H166.974C167.127 27.1511 167.428 26.4347 167.839 25.7644C168.257 25.094 168.78 24.4952 169.389 23.9913C170.049 23.4621 170.785 23.0353 171.573 22.7252C172.469 22.3955 173.419 22.2332 174.374 22.2465H174.37ZM185.949 19.8917C184.897 18.5053 183.503 17.4154 181.904 16.7284C180.248 16.005 178.323 15.6255 176.182 15.6255C173.894 15.623 171.621 15.9944 169.453 16.7249C167.354 17.4292 165.397 18.5015 163.674 19.8917C161.961 21.2586 160.515 22.9296 159.408 24.8211C158.244 26.7925 157.491 28.9798 157.196 31.2506C156.859 33.6018 156.994 35.7651 157.6 37.6801C158.157 39.5252 159.135 41.2153 160.458 42.6166C161.77 43.9784 163.418 45.0352 165.351 45.7728C167.401 46.5214 169.57 46.8938 171.753 46.8721C174.193 46.8721 176.66 46.3615 179.082 45.3437C181.017 44.5372 182.795 43.3969 184.336 41.9747C184.463 41.8543 184.563 41.7089 184.631 41.5478C184.699 41.3866 184.732 41.2132 184.73 41.0384C184.723 40.8667 184.68 40.6984 184.603 40.5448C184.526 40.3912 184.417 40.256 184.283 40.1483L180.365 36.9992C180.142 36.8184 179.862 36.7206 179.575 36.7226C179.253 36.7246 178.945 36.8474 178.71 37.0666C177.993 37.7598 177.198 38.3679 176.341 38.8787C175.207 39.549 173.849 39.8894 172.314 39.8894C170.495 39.8894 169.016 39.3681 167.928 38.3184C166.836 37.2829 166.226 35.875 166.095 34.1302H186.697C187.3 34.1302 187.832 33.6834 187.913 33.0876L188.193 31.2506V31.24C188.527 29.1106 188.495 26.9401 188.101 24.8211C187.697 22.899 186.981 21.2429 185.949 19.8917ZM215.567 15.7142C215.5 15.7035 215.415 15.7035 215.355 15.6929C214.814 15.6532 214.273 15.6307 213.731 15.6255C211.689 15.6255 209.891 16.1114 208.416 17.037C206.927 17.9732 205.555 19.4094 204.318 21.2783H204.204L204.672 17.8455C204.687 17.771 204.687 17.7107 204.687 17.6327C204.688 17.4694 204.657 17.3075 204.596 17.1561C204.535 17.0048 204.444 16.867 204.329 16.7507C204.215 16.6344 204.078 16.5419 203.928 16.4784C203.778 16.415 203.616 16.3818 203.453 16.3809H196.667C196.366 16.3808 196.075 16.4902 195.849 16.6885C195.623 16.8868 195.476 17.1606 195.437 17.459L191.572 45.4501C191.523 45.8047 191.629 46.1629 191.866 46.4501C191.982 46.5823 192.124 46.6886 192.284 46.7619C192.443 46.8353 192.616 46.8741 192.792 46.8757H199.599C199.898 46.8721 200.187 46.7602 200.41 46.5608C200.634 46.3613 200.777 46.0877 200.815 45.7905L202.403 34.1409C202.605 32.6408 202.896 31.24 203.233 29.9988C203.541 28.8392 204.057 27.7456 204.757 26.7716C205.417 25.8708 206.307 25.1687 207.417 24.6615C208.526 24.158 209.99 23.9168 211.742 23.9168C212.44 23.9168 213.117 23.9629 213.727 24.0764C213.941 24.103 214.154 24.1385 214.365 24.1828C214.448 24.2138 214.536 24.2294 214.624 24.2289C214.876 24.2258 215.121 24.1453 215.326 23.9984C215.467 23.8969 215.585 23.7678 215.674 23.619C215.763 23.4702 215.821 23.3049 215.844 23.1331L216.674 17.1327C216.717 16.7963 216.627 16.4561 216.422 16.1858C216.212 15.9224 215.906 15.7529 215.571 15.7142H215.567ZM266.479 5.10358C264.539 3.37519 262.238 2.10289 259.743 1.37994C256.683 0.46854 253.202 0.000426183 249.415 0.000426183C245.816 -0.018186 242.241 0.572951 238.839 1.74876C235.613 2.86422 232.616 4.55869 229.997 6.74908C227.378 8.96782 225.186 11.6453 223.527 14.6503C221.765 17.8625 220.613 21.3735 220.13 25.0055C219.598 28.793 219.754 32.2755 220.605 35.3466C221.446 38.4213 222.874 41.081 224.842 43.2478C226.803 45.404 229.316 47.0956 232.28 48.2588C235.251 49.4042 238.648 50 242.339 50C245.827 50 249.334 49.6383 252.78 48.9184C256.081 48.2329 259.292 47.1679 262.349 45.7444C262.552 45.6499 262.728 45.5059 262.861 45.3256C262.994 45.1453 263.08 44.9345 263.111 44.7124L266.302 22.0976C266.329 21.9071 266.314 21.7131 266.259 21.5288C266.204 21.3445 266.11 21.1744 265.983 21.0301C265.857 20.8841 265.701 20.7668 265.526 20.686C265.352 20.6053 265.161 20.563 264.969 20.562H249.032C248.709 20.5619 248.397 20.6778 248.152 20.8887C247.908 21.0996 247.747 21.3914 247.699 21.711L246.682 28.7114C246.654 28.9025 246.667 29.0972 246.721 29.2826C246.775 29.468 246.868 29.6397 246.994 29.786C247.12 29.9293 247.275 30.044 247.45 30.1222C247.624 30.2005 247.813 30.2407 248.004 30.2399H254.999L253.928 37.978C252.893 38.5099 251.486 39.0383 249.755 39.549C248.015 40.0632 245.969 40.3221 243.693 40.3221C241.452 40.3221 239.46 39.9426 237.772 39.1873C236.134 38.4707 234.69 37.3742 233.56 35.9885C232.435 34.569 231.642 32.9147 231.241 31.1478C230.791 29.3037 230.724 27.2255 231.039 24.9984C231.33 22.8676 231.98 20.8015 232.961 18.8881C233.918 17.0157 235.152 15.3773 236.627 14.0155C238.121 12.643 239.857 11.5596 241.746 10.8203C243.741 10.0466 245.865 9.65912 248.004 9.67833C250.681 9.67833 252.904 10.0578 254.598 10.8203C255.902 11.4044 257.091 12.2176 258.108 13.2211C258.231 13.3451 258.378 13.4434 258.539 13.5104C258.7 13.5774 258.873 13.6116 259.048 13.6112C259.39 13.6099 259.718 13.4809 259.97 13.2495L266.511 7.07179C266.646 6.94464 266.753 6.7906 266.825 6.61959C266.897 6.44857 266.933 6.26437 266.929 6.07882C266.924 5.89455 266.882 5.71319 266.805 5.54561C266.729 5.37802 266.619 5.22768 266.483 5.10358H266.479ZM289.542 32.8145C289.233 34.8288 288.368 36.4814 286.975 37.7155C285.578 38.9674 283.773 39.5951 281.6 39.5951C279.423 39.5951 277.807 38.9674 276.793 37.7155C275.782 36.4814 275.424 34.8288 275.729 32.8145C276.037 30.7967 276.885 29.1512 278.257 27.9029C279.636 26.6652 281.441 26.034 283.61 26.034C285.787 26.034 287.415 26.6652 288.446 27.9029C289.478 29.1512 289.84 30.7967 289.542 32.8145ZM297.792 27.0163C297.265 25.3481 296.351 23.828 295.126 22.5799C293.834 21.3178 292.285 20.35 290.584 19.7428C288.776 19.0761 286.783 18.7498 284.646 18.7498C282.508 18.7498 280.419 19.0761 278.434 19.7428C276.499 20.3728 274.688 21.3326 273.081 22.5799C271.515 23.8148 270.181 25.3167 269.138 27.0163C268.072 28.791 267.376 30.7634 267.092 32.8145C266.784 34.9317 266.915 36.8822 267.468 38.6092C268.025 40.3185 268.915 41.8186 270.113 43.0492C271.318 44.2727 272.839 45.2231 274.63 45.8792C276.424 46.5423 278.423 46.8721 280.558 46.8721C282.703 46.8721 284.787 46.5423 286.773 45.8792C288.709 45.2519 290.52 44.2918 292.126 43.0421C293.699 41.8087 295.044 40.3082 296.097 38.6092C297.182 36.8426 297.888 34.869 298.168 32.8145C298.476 30.6903 298.356 28.7434 297.792 27.0163ZM159.947 0.801894C159.863 0.669595 159.753 0.556004 159.623 0.468162C159.493 0.380319 159.346 0.320095 159.192 0.291224C157.902 0.0904943 156.598 -0.00674742 155.292 0.000426183C152.942 0.000426183 150.96 0.312503 149.45 0.950841C148.022 1.49977 146.749 2.38832 145.741 3.53965C144.809 4.63192 144.117 5.91569 143.674 7.35549C143.234 8.78112 142.894 10.3344 142.664 11.9622L138.182 45.4891C138.161 45.66 138.174 45.8334 138.221 45.9991C138.268 46.1647 138.348 46.3193 138.455 46.4537C138.679 46.7161 138.987 46.8757 139.335 46.8757H145.716C146.004 46.8725 146.281 46.7645 146.495 46.572C146.709 46.3794 146.846 46.1155 146.879 45.8295L149.708 24.5339H155.161C155.444 24.5268 155.715 24.4184 155.926 24.2284C156.136 24.0384 156.271 23.7794 156.306 23.4983L156.976 18.5938C156.997 18.4222 156.983 18.2481 156.934 18.0822C156.885 17.9163 156.803 17.7622 156.693 17.6292C156.586 17.5012 156.452 17.3986 156.3 17.3286C156.149 17.2587 155.984 17.2233 155.817 17.2249H150.69L151.336 12.5083C151.594 10.572 152.133 9.26696 152.906 8.63572C153.679 8.01156 154.778 7.6853 156.168 7.6853C156.7 7.6853 157.178 7.74204 157.586 7.84134C157.636 7.84843 157.675 7.86617 157.732 7.8839C157.884 7.92119 158.043 7.92722 158.199 7.90163C158.354 7.87604 158.503 7.81935 158.636 7.73495C158.906 7.54586 159.094 7.26032 159.16 6.93703L160.135 1.73103C160.199 1.40912 160.133 1.07505 159.951 0.801894H159.947Z" fill="#231815"/>
</svg>
