<?xml version="1.0" encoding="utf-8"?>
<svg version="1.1" xmlns="http://www.w3.org/2000/svg" fill="none" height="50">
<path fill="#231815" fill-rule="evenodd" d="M14.476 12.09a.327.327 0 00-.322-.33H12.39l.271-2.03a.408.408 0 00.005-.056.327.327 0 00-.324-.333H10.57a.324.324 0 00-.317.288L9.19 17.444v.004c-.053.45-.029.83.074 1.14.102.319.265.57.501.765.228.195.517.34.848.427.332.09.708.135 1.116.135.277 0 .57-.018.864-.05a3.63 3.63 0 00.663-.135.322.322 0 00.228-.278l.175-1.324a.347.347 0 00-.094-.288.326.326 0 00-.224-.094.35.35 0 00-.05.004c-.019.002-.034.006-.053.01-.21.026-.376.042-.508.042-.26 0-.46-.038-.606-.112a.619.619 0 01-.308-.312 1.191 1.191 0 01-.087-.476c0-.184.014-.39.045-.61l.003-.002.34-2.52h1.854a.324.324 0 00.316-.285l.184-1.338c.002-.02.007-.036.007-.057zm6.435 1.427a.398.398 0 00.074.007.35.35 0 00.2-.062.35.35 0 00.143-.241l.231-1.697a.35.35 0 00-.072-.266.344.344 0 00-.234-.13.477.477 0 00-.063-.006 5.096 5.096 0 00-.459-.019c-.577 0-1.082.134-1.503.397-.418.265-.804.667-1.151 1.195h-.036l.137-.968.002-.06a.345.345 0 00-.347-.348h-1.918a.349.349 0 00-.345.3l-1.09 7.894a.357.357 0 00.08.28.355.355 0 00.264.122h1.92a.35.35 0 00.344-.304l.448-3.29c.057-.421.135-.814.234-1.164a2.76 2.76 0 01.429-.91 1.79 1.79 0 01.753-.594c.31-.143.722-.215 1.22-.215.196 0 .385.014.56.046a8.881 8.881 0 01.179.033zm5.254 2.51h.668l-.071.552a1.51 1.51 0 01-.27.691 1.822 1.822 0 01-.535.484 2.82 2.82 0 01-.703.293 3.006 3.006 0 01-.786.103 1.81 1.81 0 01-.445-.051.993.993 0 01-.385-.173.81.81 0 01-.254-.285.611.611 0 01-.054-.402v-.009a.923.923 0 01.389-.669c.222-.16.48-.282.776-.362a4.534 4.534 0 01.903-.147c.304-.018.564-.025.767-.025zm2.912-3.8c-.256-.372-.62-.646-1.113-.84-.484-.188-1.133-.284-1.927-.284a7.03 7.03 0 00-2.141.336 6.041 6.041 0 00-1.604.788.33.33 0 00-.143.231.319.319 0 00.08.265l.755.87a.364.364 0 00.276.126.37.37 0 00.23-.082 4.19 4.19 0 01.824-.506 3.032 3.032 0 011.254-.266c.47 0 .857.137 1.158.405.305.277.425.63.36 1.098-.56 0-1.2.018-1.885.051-.69.035-1.36.149-1.991.336a4.558 4.558 0 00-1.646.882c-.468.401-.746.952-.858 1.682v.003c-.06.422-.027.803.093 1.125.122.324.306.59.57.81.256.217.57.382.926.492.362.109.752.166 1.157.166a4.617 4.617 0 001.629-.297 3.056 3.056 0 001.34-.966h.034l-.093.665c-.01.1.02.199.088.27a.37.37 0 00.269.12h1.772a.357.357 0 00.357-.297l.57-3.974c.108-.697.14-1.32.1-1.854-.04-.533-.192-.99-.441-1.354zm9.918.043c-.174-.37-.447-.648-.835-.859-.383-.206-.91-.308-1.569-.308-.313 0-.612.043-.89.122a3.476 3.476 0 00-.752.32 3.34 3.34 0 00-.59.442c-.174.165-.314.33-.417.495h-.035l.099-.757c.007-.02.007-.036.007-.058a.348.348 0 00-.348-.348h-1.808a.345.345 0 00-.347.3l-1.086 7.894a.346.346 0 00.081.28.348.348 0 00.263.122h1.912a.35.35 0 00.345-.304l.55-3.975v-.007a5.72 5.72 0 01.156-.81c.074-.26.176-.494.314-.702a1.545 1.545 0 01.551-.492c.225-.124.51-.187.847-.187.331 0 .586.072.747.215.161.136.274.323.33.547.06.223.076.469.053.734a17.278 17.278 0 01-.086.767l-.521 3.815a.362.362 0 00.082.277.342.342 0 00.26.122h1.915a.35.35 0 00.347-.304l.602-4.44c.08-.574.116-1.115.104-1.608-.012-.493-.104-.928-.28-1.293zm7.15-.926a5.16 5.16 0 00-1.557-.241c-.414 0-.83.054-1.244.164a3.696 3.696 0 00-1.143.51 3.143 3.143 0 00-.874.88 2.974 2.974 0 00-.458 1.277v.004c-.08.525-.036.952.13 1.268.166.32.388.56.678.734.289.17.608.303.952.388.346.089.667.167.969.245.301.074.546.163.738.276.188.109.27.274.234.486v.006c-.03.229-.167.387-.405.474-.241.085-.507.13-.788.13-.37 0-.688-.077-.943-.233a1.967 1.967 0 01-.471-.406.317.317 0 00-.231-.11h-.009a.321.321 0 00-.23.095l-1.23 1.244a.376.376 0 00-.1.254.362.362 0 00.11.25 2.64 2.64 0 001.085.623 5.611 5.611 0 001.658.253c.423 0 .864-.043 1.31-.131a4.088 4.088 0 001.24-.448 3.242 3.242 0 00.974-.85c.272-.348.443-.8.508-1.337.065-.527.018-.951-.139-1.267a1.815 1.815 0 00-.664-.75 3.064 3.064 0 00-.943-.41l-.96-.24a3.93 3.93 0 01-.737-.262c-.196-.095-.277-.247-.246-.452v-.005c.036-.257.154-.43.36-.537.208-.102.415-.154.624-.154.49 0 .864.147 1.15.456a.323.323 0 00.236.102.322.322 0 00.215-.083l1.195-1.105a.347.347 0 00.11-.254.355.355 0 00-.103-.259 2.438 2.438 0 00-1-.586zm12.2 1.626c.484 0 .848.152 1.108.468.257.311.351.677.28 1.121h-3.474c.043-.206.128-.408.244-.597a2.073 2.073 0 01.437-.5 2.38 2.38 0 01.616-.357 2.2 2.2 0 01.79-.135zm3.266-.664a2.84 2.84 0 00-1.141-.892c-.467-.204-1.01-.311-1.614-.311a5.926 5.926 0 00-1.898.31 5.262 5.262 0 00-1.63.893 5.025 5.025 0 00-1.203 1.39 4.771 4.771 0 00-.624 1.813c-.095.663-.057 1.273.114 1.813a3.5 3.5 0 00.806 1.392c.37.384.835.682 1.38.89a5.12 5.12 0 001.806.31c.688 0 1.384-.144 2.067-.431a5.047 5.047 0 001.482-.95.357.357 0 00.111-.264.338.338 0 00-.126-.251l-1.105-.888a.351.351 0 00-.223-.078.361.361 0 00-.244.097 3.652 3.652 0 01-.668.511c-.32.189-.703.285-1.136.285-.513 0-.93-.147-1.237-.443-.308-.292-.48-.689-.517-1.181h5.811c.17 0 .32-.126.343-.294l.079-.518v-.003a5.362 5.362 0 00-.026-1.81c-.114-.542-.316-1.009-.607-1.39zm8.354-1.178c-.019-.003-.043-.003-.06-.006a7.19 7.19 0 00-.458-.019c-.576 0-1.083.137-1.499.398-.42.264-.807.669-1.156 1.196h-.032l.132-.968c.004-.021.004-.038.004-.06a.35.35 0 00-.348-.353h-1.914a.35.35 0 00-.347.304l-1.09 7.893c-.014.1.016.201.083.282a.351.351 0 00.261.12h1.92a.35.35 0 00.343-.306l.448-3.285c.057-.423.139-.818.234-1.168a2.78 2.78 0 01.43-.91c.186-.254.437-.452.75-.595.313-.142.726-.21 1.22-.21.197 0 .388.013.56.045a2.201 2.201 0 01.18.03.205.205 0 00.073.013.347.347 0 00.198-.065.36.36 0 00.146-.244l.234-1.692a.364.364 0 00-.071-.267.36.36 0 00-.24-.133zm14.36-2.992a4.91 4.91 0 00-1.9-1.05c-.863-.257-1.845-.389-2.913-.389a8.99 8.99 0 00-2.983.493 7.923 7.923 0 00-2.494 1.41 7.968 7.968 0 00-1.825 2.228 8.361 8.361 0 00-.958 2.92c-.15 1.068-.106 2.05.134 2.916.237.867.64 1.617 1.195 2.228.553.608 1.262 1.085 2.098 1.413.838.323 1.796.491 2.837.491.984 0 1.973-.102 2.945-.305a12.334 12.334 0 002.699-.895.378.378 0 00.215-.291l.9-6.377a.375.375 0 00-.09-.301.38.38 0 00-.286-.132h-4.495a.38.38 0 00-.376.324l-.287 1.974a.38.38 0 00.088.303.378.378 0 00.285.128h1.973l-.302 2.182c-.292.15-.689.299-1.177.443-.491.145-1.068.218-1.71.218-.632 0-1.194-.107-1.67-.32a3.175 3.175 0 01-1.188-.902 3.411 3.411 0 01-.654-1.365c-.127-.52-.146-1.106-.057-1.734a5.36 5.36 0 01.542-1.723c.27-.528.618-.99 1.034-1.374a4.628 4.628 0 011.444-.901 4.764 4.764 0 011.765-.322c.755 0 1.382.107 1.86.322a3.374 3.374 0 01.99.677.372.372 0 00.265.11.386.386 0 00.26-.102l1.845-1.742a.375.375 0 00.118-.28.386.386 0 00-.126-.275zm6.505 7.814c-.087.568-.331 1.034-.724 1.382-.394.353-.903.53-1.516.53-.614 0-1.07-.177-1.356-.53-.285-.348-.386-.814-.3-1.382.087-.569.326-1.033.713-1.385.389-.349.898-.527 1.51-.527.614 0 1.073.178 1.364.527.291.352.393.816.309 1.385zm2.327-1.635a3.132 3.132 0 00-.752-1.251 3.533 3.533 0 00-1.281-.8c-.51-.188-1.072-.28-1.675-.28s-1.192.092-1.752.28a4.979 4.979 0 00-1.51.8 4.772 4.772 0 00-1.112 1.251 4.322 4.322 0 00-.577 1.635c-.087.597-.05 1.147.106 1.634.157.482.408.905.746 1.252.34.345.769.613 1.274.798.506.187 1.07.28 1.672.28.605 0 1.193-.093 1.753-.28a4.938 4.938 0 001.51-.8 4.81 4.81 0 001.12-1.25 4.207 4.207 0 00.584-1.634c.087-.599.053-1.148-.106-1.635zm-38.88-7.392a.323.323 0 00-.213-.144 6.91 6.91 0 00-1.1-.082c-.663 0-1.222.088-1.648.268a2.657 2.657 0 00-1.046.73c-.263.308-.458.67-.583 1.076-.124.402-.22.84-.285 1.299l-1.264 9.454a.363.363 0 00.077.272c.063.074.15.119.248.119h1.8a.334.334 0 00.328-.295l.798-6.005h1.538a.334.334 0 00.323-.292l.189-1.383a.358.358 0 00-.08-.272.318.318 0 00-.247-.114h-1.446l.182-1.33c.073-.546.225-.914.443-1.092.218-.176.528-.268.92-.268.15 0 .285.016.4.044.014.002.025.007.041.012a.33.33 0 00.255-.042.364.364 0 00.148-.225l.275-1.468a.35.35 0 00-.052-.262z" clip-rule="evenodd">
</path>
</svg>