<svg version="1.2" baseProfile="tiny" xmlns="http://www.w3.org/2000/svg" overflow="visible" xml:space="preserve" width="144" height="50"><path fill-rule="evenodd" fill="#231815" d="m111.31 16.56-10.94 15.13h3.32l1.76-2.39h6.11l.54 2.37h3.13l-3.91-15.13-.01.02zm-3.82 9.98 2.63-3.56.82 3.56h-3.45zm24.04-10.15-6 10.9-4.96-10.76-4.36 15.19h3.09l2.02-7.2 4.04 8.09 4.64-8.04 1.35 7.02 3.19-.04-2.84-14.1-.17-1.06zm-59.71 9.49 6.16.01.87-2.68-6.16-.01-.87 2.68zm1.56-7.57-2.12-2.01-5.71 5.67-2.49-5.57-2.86 1.57 3.07 6.27-6.29 6.12 2.23 1.83 5.25-5.35 2.22 5.25 2.96-1.29-2.88-6.21 6.62-6.28zm20.6 7.58 6.5.02.81-2.73-6.5-.02.83-2.9 7.4.02.81-2.77-10.46-.03-4.12 14.18 9.75-.03.81-2.78-6.7.03.87-2.99zm-2.48-8.41-11.6-.03-.83 2.88 4.26.01-3.28 11.3 3.08.01 3.28-11.3 4.26.01.83-2.88zm48.97-3.81c-1.83 0-3.26 1.48-3.26 3.26s1.42 3.24 3.24 3.24c1.83 0 3.27-1.48 3.27-3.26a3.241 3.241 0 0 0-3.25-3.24zm-.02 6.25c-1.7 0-2.98-1.34-2.98-2.99s1.29-3.01 2.99-3.01c1.7 0 2.98 1.34 2.98 2.99 0 1.65-1.28 3.01-2.99 3.01zm1.44-3.78c0-.58-.51-.95-1.21-.95h-1.48v3.29h.39v-1.32h.95l1.04 1.32h.5l-1.1-1.38c.55-.11.91-.42.91-.96zm-2.3.66v-1.24h1.07c.51 0 .83.22.83.6 0 .42-.38.64-.87.64h-1.03zM37.37 23.37 10.84 50.03.08 39.45l15.06-16L2.75 11.08 13.82.03l23.55 23.34zM27.81 36.1l11.07-11.05 10.8 10.79-11.07 11.05-10.8-10.79zm.09-25.37L38.61.03l11.07 11.05-10.71 10.7L27.9 10.73z"/></svg>