<svg width="124" height="50" fill="none" xmlns="http://www.w3.org/2000/svg"><path d="M21.23 40.697l.966-4.994c15.762 9.988 36.027 9.988 51.79 0l.964 4.994c-15.762 12.404-37.957 12.404-53.72 0zM83.637 17.66c1.769.322 3.699.161 5.307-.805 1.287-.806 2.091-2.095 2.413-3.544.322-1.45.482-2.739.643-4.189h6.112v2.255c-.16 1.934-.643 3.706-1.448 5.317-.643 1.288-1.769 2.416-2.895 3.222-.321.16-.643.483-.965.644.322.483.644 1.128.805 1.61a234.54 234.54 0 004.986 8.539l.482.966c.16.323.16.645.16.967h-6.754l-5.308-9.666-3.538.323v9.504H77.04V.906h6.595V17.66zM19.622 8.961c0 .322-.16.645-.322 1.128l-3.377 5.8c-2.091 3.543-4.182 7.087-6.112 10.631 0 .162-.16.323-.16.484h9.971v5.8H0c0-.323.16-.645.322-.967.965-1.773 1.93-3.383 2.895-4.994.965-1.611 1.769-3.061 2.734-4.672 1.287-2.255 2.573-4.51 3.86-6.605.16-.161.16-.322.322-.644H.804v-5.96h18.818zm-9.168-2.255c-.965.16-1.769-.161-2.412-.806-.965-.805-1.448-2.255-.965-3.544C7.399 1.23 8.524.262 9.81.101c1.126-.322 2.413.161 3.217.966.965.967 1.126 2.256.804 3.545-.482 1.288-1.608 2.094-2.895 2.094-.16.16-.322.16-.482 0zm61.923 9.666c-.643-2.256-1.93-4.35-3.86-5.8-1.77-1.289-3.7-1.933-5.79-1.933-1.77-.161-3.7.161-5.469.805-.16 0-.482.162-.643.162v-8.7H50.02v30.447c.966.322 1.93.484 2.896.645 1.608.483 3.216.805 4.986 1.127 2.573.322 5.146 0 7.72-.805 3.86-1.128 6.755-4.35 7.237-8.377.322-2.417.322-5.155-.482-7.572zm-6.273 7.893c-.482 1.611-1.769 2.9-3.377 3.222-1.93.483-4.021.322-5.79-.322 0 0-.161 0-.161-.161v-11.76c2.251-1.611 5.307-1.611 7.56-.161.803.644 1.286 1.45 1.608 2.416.643 2.094.804 4.51.16 6.766zM43.91 10.572c-1.609-.644-3.378-1.128-5.147-1.45a27.4 27.4 0 00-7.238-.483c-2.09.161-4.182 1.128-5.79 2.739-1.448 1.61-2.573 3.544-2.895 5.638a24.623 24.623 0 00-.483 4.833c0 2.094.483 4.027 1.448 5.8.804 1.449 1.93 2.738 3.378 3.543 3.216 1.772 6.916 2.417 10.454 1.772 2.573-.322 4.986-1.127 7.56-1.61V11.216c-.322-.162-.805-.484-1.287-.645zm-5.147 16.593c-2.252.805-4.664.966-6.916 0-1.126-.483-1.93-1.289-2.413-2.578-.804-2.577-.804-5.155.161-7.732.643-1.611 2.252-2.739 3.86-2.9 1.609-.161 3.378 0 4.825.806.161 0 .161.16.322.16l.16 12.244zm82.831-16.915a35.675 35.675 0 00-5.951-1.45c-1.93-.322-4.021-.322-6.112 0-3.699.644-6.594 3.383-7.72 6.927-.804 2.739-1.126 5.638-.643 8.538.322 2.578 1.608 4.994 3.699 6.605.483.322 1.126.805 1.609.967a13.526 13.526 0 004.342 1.288c1.769.322 3.539.322 5.308 0 2.573-.483 5.147-1.127 7.559-1.61V11.215a25.975 25.975 0 00-2.091-.966zm-4.181 16.915c-.322.16-.483.16-.805.16a16.172 16.172 0 01-4.021.484c-1.608 0-3.056-.805-4.021-2.094-.482-.644-.804-1.45-.965-2.255-.321-1.934-.321-3.867.322-5.8.483-1.933 2.252-3.383 4.182-3.544 1.769-.322 3.538 0 5.147.967l.161 12.082z" fill="#231815"/></svg>